<svg width="18" height="17" viewBox="0 0 18 17" fill="none" xmlns="http://www.w3.org/2000/svg">
<path d="M11.3827 0.499237C8.01715 -0.732723 4.12989 0.376659 1.88306 3.15159C-0.337863 5.89454 -0.629586 9.85419 1.19637 12.8837C3.02228 15.9131 6.58542 17.4877 10.0547 16.8658C14.0915 16.1421 16.9227 12.5356 17.0022 8.50327C16.9318 4.93522 14.7626 1.73638 11.3827 0.499237ZM11.9833 12.7968C10.8226 11.6361 9.66187 10.4754 8.50113 9.31464C7.34039 10.4754 6.17967 11.6361 5.01895 12.7968C4.4938 13.322 3.67941 12.5071 4.20434 11.9822C5.36505 10.8215 6.52577 9.66074 7.68651 8.50002C6.52577 7.33928 5.36505 6.17856 4.20434 5.01782C3.67918 4.49269 4.49403 3.67828 5.01895 4.20321C6.17967 5.36395 7.34039 6.52466 8.50113 7.68538C9.66187 6.52466 10.8226 5.36395 11.9833 4.20321C12.5085 3.67805 13.3228 4.4929 12.7979 5.01782C11.6372 6.17856 10.4765 7.33928 9.31575 8.50002C10.4765 9.66074 11.6372 10.8215 12.7979 11.9822C13.3231 12.5073 12.5082 13.3217 11.9833 12.7968Z" fill="#E80A0A"/>
</svg>
