<svg width="36" height="36" viewBox="0 0 36 36" fill="none" xmlns="http://www.w3.org/2000/svg">
<circle cx="18" cy="18" r="18" fill="#0D68FF"/>
<path d="M18.5 36C24.9 36 30.1667 31.3333 32 29L24.5 21L8.5 24.5C10.3333 26 13 30 18.5 36Z" fill="#104CB0"/>
<path d="M26.5818 23.3095L26.378 23.1297C25.7999 22.6145 25.2938 22.0238 24.8735 21.3734C24.4145 20.4758 24.1394 19.4955 24.0643 18.4902V15.5291C24.0683 13.95 23.4955 12.4238 22.4535 11.2372C21.4116 10.0507 19.9722 9.28546 18.4058 9.08534V8.31209C18.4058 8.09986 18.3215 7.89632 18.1714 7.74625C18.0214 7.59618 17.8178 7.51187 17.6056 7.51187C17.3934 7.51187 17.1898 7.59618 17.0397 7.74625C16.8897 7.89632 16.8054 8.09986 16.8054 8.31209V9.09733C15.253 9.31188 13.831 10.0817 12.8028 11.2643C11.7745 12.4468 11.2097 13.962 11.2128 15.5291V18.4902C11.1377 19.4955 10.8626 20.4758 10.4036 21.3734C9.99053 22.0222 9.4926 22.6128 8.92304 23.1297L8.71924 23.3095V24.9998H26.5818V23.3095Z" fill="#FFF172"/>
<path d="M16.0742 25.6292C16.1268 26.0092 16.3151 26.3573 16.6043 26.6093C16.8935 26.8612 17.2641 27 17.6477 27C18.0313 27 18.4019 26.8612 18.6911 26.6093C18.9803 26.3573 19.1686 26.0092 19.2212 25.6292H16.0742Z" fill="#FFF172"/>
</svg>
