<svg width="30" height="26" viewBox="0 0 30 26" fill="none" xmlns="http://www.w3.org/2000/svg">
<path d="M29.6749 24.0976C29.3513 25.2073 28.2368 26 26.8707 26H3.1426C1.81239 26 0.661943 25.2073 0.338379 24.0976H29.6749ZM4.58067 8.87805H3.1426C2.74714 8.87805 2.42357 9.16341 2.42357 9.51219V22.8293H4.58067V8.87805ZM27.5897 9.51219C27.5897 9.16341 27.2661 8.87805 26.8707 8.87805H25.4326V22.8293H27.5897V9.51219ZM23.9945 22.8293H6.01873V0.634146C6.01873 0.285366 6.3423 0 6.73776 0H17.5232V3.80488C17.5232 4.85122 18.4939 5.70732 19.6803 5.70732H23.9945V22.8293ZM11.052 17.439C11.052 17.0902 10.7284 16.8049 10.3329 16.8049C9.93746 16.8049 9.61389 17.0902 9.61389 17.439C9.61389 17.7878 9.93746 18.0732 10.3329 18.0732C10.7284 18.0732 11.052 17.7878 11.052 17.439ZM11.052 14.2683C11.052 13.9195 10.7284 13.6341 10.3329 13.6341C9.93746 13.6341 9.61389 13.9195 9.61389 14.2683C9.61389 14.6171 9.93746 14.9024 10.3329 14.9024C10.7284 14.9024 11.052 14.6171 11.052 14.2683ZM12.9933 8.75122C12.7057 8.49756 12.2743 8.49756 11.9867 8.75122L10.4767 10.0829L10.3329 10.2098L10.297 10.178L10.1172 10.0195C9.8296 9.76585 9.39818 9.76585 9.11057 10.0195C8.82296 10.2732 8.82296 10.6537 9.11057 10.9073L9.8296 11.5415C9.97341 11.6683 10.1532 11.7317 10.3329 11.7317C10.5127 11.7317 10.6924 11.6683 10.8362 11.5415L12.9933 9.63902C13.281 9.38537 13.281 9.00488 12.9933 8.75122ZM20.3994 17.439C20.3994 17.0902 20.0758 16.8049 19.6803 16.8049H14.6471C14.2516 16.8049 13.9281 17.0902 13.9281 17.439C13.9281 17.7878 14.2516 18.0732 14.6471 18.0732H19.6803C20.0758 18.0732 20.3994 17.7878 20.3994 17.439ZM20.3994 14.2683C20.3994 13.9195 20.0758 13.6341 19.6803 13.6341H14.6471C14.2516 13.6341 13.9281 13.9195 13.9281 14.2683C13.9281 14.6171 14.2516 14.9024 14.6471 14.9024H19.6803C20.0758 14.9024 20.3994 14.6171 20.3994 14.2683ZM20.3994 11.0976C20.3994 10.7488 20.0758 10.4634 19.6803 10.4634H14.6471C14.2516 10.4634 13.9281 10.7488 13.9281 11.0976C13.9281 11.4463 14.2516 11.7317 14.6471 11.7317H19.6803C20.0758 11.7317 20.3994 11.4463 20.3994 11.0976ZM19.6803 4.43902H22.9879L18.9613 0.887805V3.80488C18.9613 4.15366 19.2849 4.43902 19.6803 4.43902Z" fill="white"/>
</svg>
