<svg width="18" height="18" viewBox="0 0 18 18" fill="none" xmlns="http://www.w3.org/2000/svg">
<circle cx="9" cy="9" r="9" fill="#999999" fill-opacity="0.16"/>
<path fill-rule="evenodd" clip-rule="evenodd" d="M4.512 8L4.5 7.9655C4.23 7.192 4 6.135 4 5.5C4 5.225 4.225 5 4.5 5H6C6.26522 5 6.51957 5.10536 6.70711 5.29289C6.89464 5.48043 7 5.73478 7 6V7C7 7.26522 6.89464 7.51957 6.70711 7.70711C6.51957 7.89464 6.26522 8 6 8H5.5815C5.98519 8.99449 6.58421 9.89792 7.34315 10.6569C8.10208 11.4158 9.00551 12.0148 10 12.4185V12C10 11.7348 10.1054 11.4804 10.2929 11.2929C10.4804 11.1054 10.7348 11 11 11H12C12.2652 11 12.5196 11.1054 12.7071 11.2929C12.8946 11.4804 13 11.7348 13 12V13.5C13 13.725 12.725 14 12.5 14C11.6375 14 10.78 13.772 10 13.5C7.443 12.584 5.416 10.557 4.512 8Z" fill="#A4A4A4"/>
</svg>
