<svg width="29" height="26" viewBox="0 0 29 26" fill="none" xmlns="http://www.w3.org/2000/svg">
<path d="M28.0851 8.46754L24.638 6.3106V0.489223C24.638 0.424978 24.6252 0.361362 24.6004 0.302008C24.5755 0.242653 24.539 0.188722 24.4931 0.143295C24.4471 0.0978672 24.3925 0.0618325 24.3325 0.0372482C24.2724 0.0126639 24.2081 1.13748e-05 24.1431 1.31913e-05H21.1735C21.0423 1.1357e-05 20.9164 0.0515519 20.8235 0.143296C20.7307 0.235041 20.6786 0.359475 20.6786 0.489223V3.83302L14.6742 0.0758682C14.595 0.0263099 14.5032 0 14.4095 0C14.3157 0 14.2239 0.0263099 14.1447 0.0758682L0.733844 8.46754C0.558888 8.57674 0.407423 8.71897 0.288111 8.88607C0.168799 9.05318 0.0839788 9.24189 0.0385006 9.44142C-0.00697751 9.64095 -0.0122219 9.84739 0.0230673 10.0489C0.0583566 10.2505 0.133487 10.4431 0.244164 10.616C0.354841 10.7888 0.498892 10.9383 0.668083 11.0561C0.837274 11.1738 1.02829 11.2575 1.2302 11.3022C1.43211 11.3469 1.64096 11.3519 1.84481 11.3168C2.04866 11.2817 2.24351 11.2072 2.41822 11.0976L14.4095 3.59425L26.4007 11.0976C26.5754 11.2072 26.7703 11.2817 26.9741 11.3168C27.178 11.3519 27.3868 11.3469 27.5887 11.3022C27.7906 11.2575 27.9817 11.1738 28.1508 11.0561C28.32 10.9383 28.4641 10.7888 28.5748 10.616C28.6854 10.4431 28.7606 10.2505 28.7959 10.0489C28.8311 9.84739 28.8259 9.64095 28.7804 9.44142C28.7349 9.24189 28.6501 9.05318 28.5308 8.88607C28.4115 8.71897 28.26 8.57674 28.0851 8.46754Z" fill="white"/>
<path fill-rule="evenodd" clip-rule="evenodd" d="M4.38721 12.5677V24.8485C4.38721 25.1539 4.50994 25.4468 4.72839 25.6627C4.94685 25.8787 5.24314 26 5.55209 26H8.9238C8.75845 25.9599 8.63135 25.7289 8.63135 25.5309V17.3556C8.63135 17.1378 8.7848 16.9612 8.97394 16.9612H12.8267C13.4846 16.9612 14.0657 17.3459 14.4097 17.9298C14.7538 17.3459 15.3349 16.9612 15.9928 16.9614H19.8453C20.0344 16.9614 20.1879 17.138 20.1879 17.3556V25.5309C20.1879 25.7289 20.061 25.9599 19.8957 26H23.267C23.576 26 23.8723 25.8787 24.0907 25.6627C24.3092 25.4468 24.4319 25.1539 24.4319 24.8486V12.5677L14.4096 6.2959L4.38721 12.5677ZM15.1985 26C15.3284 25.3923 15.9112 24.7892 16.3693 24.7892H18.458L18.4579 18.7498H15.9928C15.3167 18.7498 15.1972 19.3827 15.1972 20.1608V26H15.1985ZM13.6174 26V20.1608C13.6174 19.3827 13.5027 18.7498 12.8266 18.7498H10.361L10.3611 24.7892H12.4189C12.877 24.7892 13.3571 25.3923 13.6149 26H13.6174Z" fill="white"/>
</svg>
