<svg width="21" height="26" viewBox="0 0 21 26" fill="none" xmlns="http://www.w3.org/2000/svg">
<path d="M14 6.33334C14 6.42175 14.0351 6.50653 14.0976 6.56904C14.1601 6.63155 14.2449 6.66667 14.3333 6.66667H20.0667L19.9867 6.57334L14.0933 0.680006L14 0.600006V6.33334Z" fill="white"/>
<path d="M14.3333 8.66667C13.7156 8.66317 13.1241 8.41621 12.6873 7.97938C12.2505 7.54255 12.0035 6.95109 12 6.33333V0H2.33333C1.71557 0.00350013 1.12411 0.250457 0.687285 0.687285C0.250457 1.12411 0.00350013 1.71557 0 2.33333V23.6667C0.00350013 24.2844 0.250457 24.8759 0.687285 25.3127C1.12411 25.7495 1.71557 25.9965 2.33333 26H18.3333C18.9511 25.9965 19.5426 25.7495 19.9794 25.3127C20.4162 24.8759 20.6632 24.2844 20.6667 23.6667V8.66667H14.3333ZM14.3333 19.3333H6.33333C6.06812 19.3333 5.81376 19.228 5.62623 19.0404C5.43869 18.8529 5.33333 18.5986 5.33333 18.3333C5.33333 18.0681 5.43869 17.8138 5.62623 17.6262C5.81376 17.4387 6.06812 17.3333 6.33333 17.3333H14.3333C14.5985 17.3333 14.8529 17.4387 15.0404 17.6262C15.228 17.8138 15.3333 18.0681 15.3333 18.3333C15.3333 18.5986 15.228 18.8529 15.0404 19.0404C14.8529 19.228 14.5985 19.3333 14.3333 19.3333ZM14.3333 14H6.33333C6.06812 14 5.81376 13.8946 5.62623 13.7071C5.43869 13.5196 5.33333 13.2652 5.33333 13C5.33333 12.7348 5.43869 12.4804 5.62623 12.2929C5.81376 12.1054 6.06812 12 6.33333 12H14.3333C14.5985 12 14.8529 12.1054 15.0404 12.2929C15.228 12.4804 15.3333 12.7348 15.3333 13C15.3333 13.2652 15.228 13.5196 15.0404 13.7071C14.8529 13.8946 14.5985 14 14.3333 14Z" fill="white"/>
</svg>
