<svg width="24" height="26" viewBox="0 0 24 26" fill="none" xmlns="http://www.w3.org/2000/svg">
<path d="M20 20.6667C19.081 20.6667 18.3333 21.4144 18.3333 22.3334V26L23.6667 20.6667H20Z" fill="white"/>
<path d="M4.66666 3.33331V22.6666C4.66666 24.5 6.16666 26 8 26H16.6667V22.3333C16.6667 20.5 18.1667 19 20 19H23.6667L23.6673 3.33331H4.66666ZM14.6667 16.8333H8.66666V15.1666H14.6667V16.8333ZM19.6667 12.8333H8.66666V11.1666H19.6667V12.8333ZM19.6667 8.83331H8.66666V7.16665H19.6667V8.83331Z" fill="white"/>
<path d="M3 1.66667H19.0007V0H0V19.3333C0 21.054 1.32167 22.481 3 22.6497V1.66667Z" fill="white"/>
</svg>
