<svg width="20" height="20" viewBox="0 0 20 20" fill="none" xmlns="http://www.w3.org/2000/svg">
<path fill-rule="evenodd" clip-rule="evenodd" d="M20 10.0003C20 4.47765 15.5223 0 9.99966 0C4.47765 0 0 4.47765 0 10.0003C0 14.9916 3.65694 19.1287 8.43758 19.8783V12.8913H5.89816V10.0003H8.43758V7.79674C8.43758 5.29084 9.93058 3.90658 12.2142 3.90658C13.3085 3.90658 14.4534 4.10149 14.4534 4.10149V6.56294H13.1922C11.9495 6.56294 11.5624 7.33372 11.5624 8.12434V10.0003H14.3357L13.8926 12.8913H11.5624V19.8783C16.3431 19.1287 20 14.9916 20 10.0003Z" fill="url(#paint0_linear_353:851)"/>
<defs>
<linearGradient id="paint0_linear_353:851" x1="2.92897" y1="3.01426" x2="16.9851" y2="17.0704" gradientUnits="userSpaceOnUse">
<stop stop-color="#3765A1"/>
<stop offset="1" stop-color="#2A3072"/>
</linearGradient>
</defs>
</svg>
