<svg width="20" height="20" viewBox="0 0 20 20" fill="none" xmlns="http://www.w3.org/2000/svg">
<mask id="mask0_2706:1238" style="mask-type:alpha" maskUnits="userSpaceOnUse" x="0" y="0" width="20" height="20">
<path d="M20 10.0003C20 4.47765 15.5223 0 9.99966 0C4.47765 0 0 4.47765 0 10.0003C0 14.9916 3.65694 19.1287 8.43758 19.8783V12.8913H5.89816V10.0003H8.43758V7.79674C8.43758 5.29084 9.93058 3.90658 12.2142 3.90658C13.3085 3.90658 14.4534 4.10149 14.4534 4.10149V6.56294H13.1922C11.9495 6.56294 11.5624 7.33372 11.5624 8.12434V10.0003H14.3357L13.8926 12.8913H11.5624V19.8783C16.3431 19.1287 20 14.9916 20 10.0003Z" fill="white"/>
</mask>
<g mask="url(#mask0_2706:1238)">
<path fill-rule="evenodd" clip-rule="evenodd" d="M20 10.0003C20 4.47765 15.5223 0 9.99966 0C4.47765 0 0 4.47765 0 10.0003C0 14.9916 3.65694 19.1287 8.43758 19.8783V12.8913H5.89816V10.0003H8.43758V7.79674C8.43758 5.29084 9.93058 3.90658 12.2142 3.90658C13.3085 3.90658 14.4534 4.10149 14.4534 4.10149V6.56294H13.1922C11.9495 6.56294 11.5624 7.33372 11.5624 8.12434V10.0003H14.3357L13.8926 12.8913H11.5624V19.8783C16.3431 19.1287 20 14.9916 20 10.0003Z" fill="url(#paint0_linear_2706:1238)"/>
</g>
<path fill-rule="evenodd" clip-rule="evenodd" d="M13.8926 12.8913L14.3358 10.0004H11.5625V8.12435C11.5625 7.33373 11.9496 6.56295 13.1922 6.56295H14.4534V4.1015C14.4534 4.1015 13.3085 3.90659 12.2142 3.90659C9.93061 3.90659 8.4376 5.29085 8.4376 7.79675V10.0004H5.89819V12.8913H8.4376V19.8783C8.94644 19.959 9.46828 20 9.99969 20C10.5318 20 11.0536 19.959 11.5625 19.8783V12.8913H13.8926Z" fill="#FFFFFE"/>
<defs>
<linearGradient id="paint0_linear_2706:1238" x1="2.92897" y1="3.01426" x2="16.9851" y2="17.0704" gradientUnits="userSpaceOnUse">
<stop stop-color="#3765A1"/>
<stop offset="1" stop-color="#2A3072"/>
</linearGradient>
</defs>
</svg>
