<svg width="31" height="26" viewBox="0 0 31 26" fill="none" xmlns="http://www.w3.org/2000/svg">
<path d="M22.116 24.476H19.7989L19.2429 21.3634L11.2731 21.3479L10.6508 24.476H8.44842C7.97129 24.476 7.58447 24.8172 7.58447 25.238C7.58447 25.6588 7.97129 26 8.44842 26H22.116C22.5931 26 22.98 25.6588 22.98 25.238C22.98 24.8172 22.5931 24.476 22.116 24.476Z" fill="white"/>
<path d="M16.271 9.1402H18.3766C18.604 8.12737 19.3277 7.26744 20.3182 6.75929C19.9616 6.31424 19.7516 5.77409 19.7516 5.19188C19.7516 3.67553 21.1713 2.44187 22.9164 2.44187C24.6615 2.44187 26.0812 3.67553 26.0812 5.19188C26.0812 5.77409 25.8712 6.31424 25.5146 6.75929C26.5051 7.26744 27.2287 8.12737 27.4562 9.1402H30.0237V1.70269C30.0237 0.762344 29.1465 0 28.0643 0H16.271V9.1402Z" fill="white"/>
<path d="M3.12149 9.1402C3.34888 8.12737 4.07258 7.26744 5.06307 6.75929C4.70643 6.31424 4.49649 5.77409 4.49649 5.19188C4.49649 3.67553 5.9162 2.44187 7.66126 2.44187C9.40627 2.44187 10.826 3.67553 10.826 5.19188C10.826 5.77409 10.6161 6.31424 10.2594 6.75929C11.2499 7.26744 11.9735 8.12737 12.2009 9.1402H14.3476V0H2.5029C1.42071 0 0.543457 0.762344 0.543457 1.70269V9.1402H3.12149Z" fill="white"/>
<path d="M7.73416 6.26732C8.3846 6.23425 8.90257 5.76532 8.90257 5.19195C8.90257 4.59719 8.34573 4.11328 7.66125 4.11328C6.97677 4.11328 6.41992 4.59719 6.41992 5.19195C6.41992 5.76532 6.93789 6.23425 7.58833 6.26732H7.73416Z" fill="white"/>
<path d="M22.989 6.26732C23.6395 6.23425 24.1575 5.76532 24.1575 5.19195C24.1575 4.59719 23.6006 4.11328 22.9161 4.11328C22.2317 4.11328 21.6748 4.59719 21.6748 5.19195C21.6748 5.76532 22.1928 6.23425 22.8432 6.26732H22.989Z" fill="white"/>
<path d="M20.3706 9.14003H25.462C25.1469 8.43758 24.36 7.93848 23.4415 7.93848C23.1454 7.93909 22.7576 7.93995 22.3911 7.93848C21.4726 7.93848 20.6857 8.43758 20.3706 9.14003Z" fill="white"/>
<path d="M5.11523 9.14003H10.2066C9.89156 8.43758 9.10461 7.93848 8.18612 7.93848C7.89007 7.93909 7.50216 7.93995 7.13573 7.93848C6.21729 7.93848 5.43029 8.43758 5.11523 9.14003Z" fill="white"/>
<path d="M22.989 16.7755C23.6395 16.7424 24.1575 16.2734 24.1575 15.7C24.1575 15.1053 23.6006 14.6213 22.9161 14.6213C22.2317 14.6213 21.6748 15.1053 21.6748 15.7C21.6748 16.2734 22.1928 16.7424 22.8432 16.7755H22.989Z" fill="white"/>
<path d="M20.3706 19.6483H25.462C25.1469 18.9459 24.36 18.4468 23.4415 18.4468C23.1454 18.4474 22.7576 18.4483 22.3911 18.4468C21.4726 18.4468 20.6857 18.9459 20.3706 19.6483Z" fill="white"/>
<path d="M16.271 10.8115V19.6514H18.3756C18.6024 18.6374 19.3267 17.776 20.3182 17.2674C19.9615 16.8223 19.7516 16.2821 19.7516 15.6999C19.7516 14.1836 21.1713 12.9499 22.9164 12.9499C24.6615 12.9499 26.0812 14.1836 26.0812 15.6999C26.0812 16.2822 25.8712 16.8223 25.5146 17.2674C26.5061 17.776 27.2304 18.6374 27.4571 19.6514H28.0643C29.1465 19.6514 30.0238 18.8891 30.0238 17.9487V10.8115H16.271Z" fill="white"/>
<path d="M5.11523 19.6483H10.2066C9.89156 18.9459 9.10461 18.4468 8.18612 18.4468C7.89007 18.4474 7.50216 18.4483 7.13573 18.4468C6.21729 18.4468 5.43029 18.9459 5.11523 19.6483Z" fill="white"/>
<path d="M7.73416 16.7755C8.3846 16.7424 8.90257 16.2734 8.90257 15.7C8.90257 15.1053 8.34573 14.6213 7.66125 14.6213C6.97677 14.6213 6.41992 15.1053 6.41992 15.7C6.41992 16.2734 6.93789 16.7424 7.58833 16.7755H7.73416Z" fill="white"/>
<path d="M5.06307 17.2674C4.70638 16.8223 4.49649 16.2821 4.49649 15.6999C4.49649 14.1836 5.9162 12.9499 7.66126 12.9499C9.40627 12.9499 10.826 14.1836 10.826 15.6999C10.826 16.2822 10.6161 16.8223 10.2594 17.2674C11.2509 17.776 11.9752 18.6374 12.202 19.6514H14.3476V10.8115H0.543457V17.9488C0.543457 18.8892 1.42071 19.6514 2.5029 19.6514H3.12051C3.34727 18.6374 4.0716 17.776 5.06307 17.2674Z" fill="white"/>
</svg>
