<svg width="335" height="232" viewBox="0 0 335 232" fill="none" xmlns="http://www.w3.org/2000/svg">
<path d="M109.769 29.2307H124.773L122.733 26.9274V21.3337C122.733 18.3065 120.298 15.8716 117.271 15.8716C114.244 15.8716 111.809 18.3065 111.809 21.3337V26.6642L109.769 29.2307Z" fill="#2AAEE5"/>
<path d="M115.231 28.507C115.297 29.3625 115.823 30.218 116.679 30.5471C117.534 30.8761 118.456 30.7445 119.114 30.1522C119.772 29.5599 120.035 28.5728 119.772 27.7173" fill="#2AAEE5"/>
<path d="M118.126 13.5684H116.679V16.7272H118.126V13.5684Z" fill="#2AAEE5"/>
<path d="M139.185 18.9647C139.185 18.9647 139.12 18.8331 139.054 18.5699C138.988 18.3066 138.922 17.9118 138.79 17.3853C138.725 16.8589 138.527 16.2666 138.264 15.5427C138.132 15.2136 138.067 14.753 137.869 14.3581C137.672 13.9633 137.54 13.5026 137.343 13.1078C136.487 11.3309 135.237 9.22507 133.394 7.25081C131.486 5.21074 128.985 3.3681 125.826 2.05193C124.247 1.32804 122.536 0.933187 120.759 0.604144C118.916 0.406719 117.008 0.275101 115.034 0.538336C114.046 0.604144 113.059 0.867379 112.072 1.0648C111.546 1.19642 111.085 1.39385 110.624 1.52546C110.098 1.65708 109.637 1.85451 109.177 2.05193C107.202 2.77583 105.36 3.96038 103.583 5.40817C100.095 8.23794 97.3311 12.4497 96.1465 17.3195C95.5542 19.7544 95.4226 22.3868 95.6859 24.9533C95.9491 27.5857 96.7388 30.1522 97.9233 32.5213L98.3182 33.2452L98.384 33.311V33.3768C97.1994 37.3911 95.9491 41.2738 94.8303 45.0249L94.5013 44.7617C97.7259 43.0507 100.885 41.4054 103.912 39.8919L104.044 39.826L104.175 39.8919C107.202 42.1952 110.69 43.6429 114.046 44.1694C117.468 44.6959 120.825 44.3668 123.786 43.5113C126.747 42.6558 129.38 41.1422 131.486 39.3654C133.592 37.5886 135.237 35.6143 136.421 33.5742C137.606 31.5342 138.33 29.5599 138.79 27.7173C139.185 25.8746 139.383 24.2952 139.449 22.9791C139.449 22.321 139.449 21.7287 139.449 21.268C139.383 20.8074 139.383 20.3467 139.317 20.0177C139.317 19.6886 139.251 19.4254 139.251 19.228C139.185 19.0963 139.185 18.9647 139.185 18.9647C139.185 18.9647 139.185 19.0305 139.251 19.228C139.251 19.4254 139.317 19.6886 139.317 20.0177C139.383 20.3467 139.383 20.8074 139.449 21.268C139.449 21.7945 139.449 22.3868 139.449 22.9791C139.449 24.2952 139.251 25.8746 138.856 27.7173C138.396 29.5599 137.672 31.6 136.487 33.64C135.303 35.6801 133.657 37.7202 131.486 39.5628C129.38 41.3396 126.747 42.8532 123.72 43.7746C120.693 44.6959 117.337 45.0249 113.849 44.4985C110.361 43.972 106.873 42.5242 103.78 40.1551H103.978C100.951 41.7345 97.7917 43.3797 94.5671 45.0907L94.1064 45.354L94.2381 44.8275C95.3568 41.0106 96.6072 37.1279 97.7917 33.1794V33.3768L97.3969 32.6529C96.1465 30.218 95.3568 27.5857 95.0936 24.9533C94.7645 22.321 94.8961 19.6228 95.5542 17.1221C96.8046 12.1206 99.5686 7.84309 103.188 5.01332C104.965 3.56553 106.873 2.38098 108.848 1.65708C109.308 1.39385 109.835 1.26223 110.361 1.13061C110.888 0.998997 111.348 0.80157 111.875 0.669953C112.862 0.472528 113.849 0.209294 114.902 0.143485C116.876 -0.119749 118.85 0.0118674 120.693 0.275102C122.536 0.604144 124.313 1.06481 125.826 1.7887C128.985 3.10487 131.552 5.07913 133.46 7.11919C135.368 9.15926 136.619 11.3309 137.408 13.1078C137.606 13.5684 137.803 14.0291 137.935 14.4239C138.132 14.8188 138.198 15.2136 138.33 15.6085C138.527 16.3324 138.725 16.9905 138.856 17.4511C138.922 17.9776 139.054 18.3066 139.054 18.6357C139.185 18.8331 139.185 18.9647 139.185 18.9647Z" fill="#263238"/>
<path d="M23.7412 127.798L0.019043 196.122L101.355 231.306L125.077 162.982L23.7412 127.798Z" fill="#EBEBEB"/>
<path d="M125.037 163.008C125.037 163.008 124.642 163.271 123.787 163.6C122.866 163.995 121.615 164.456 120.102 165.114C116.811 166.43 112.139 168.207 106.479 170.444C94.8312 174.919 78.9713 180.974 61.3346 187.686L60.9398 187.818L60.7424 187.489C60.6107 187.225 60.4133 186.962 60.2159 186.699C50.0814 170.51 40.934 155.901 34.2215 145.174C30.9969 139.909 28.2987 135.632 26.4561 132.539C25.6006 131.091 24.8767 129.972 24.3502 129.051C23.8896 128.261 23.6263 127.8 23.6921 127.8C23.6921 127.8 24.0212 128.195 24.5476 128.919C25.1399 129.775 25.8638 130.893 26.7851 132.275C28.7594 135.302 31.4575 139.514 34.8138 144.713C41.5921 155.374 50.8711 169.984 61.0714 186.041C61.2688 186.304 61.4004 186.567 61.5979 186.831L61.0056 186.633C78.6423 179.986 94.5679 173.998 106.216 169.655C111.941 167.549 116.614 165.838 119.904 164.587C121.484 164.061 122.734 163.6 123.655 163.271C124.577 163.139 125.037 163.008 125.037 163.008Z" fill="#E0E0E0"/>
<path d="M0.00118398 196.11C-0.130433 195.846 10.728 189.134 24.2845 181.105C37.8411 173.077 48.8969 166.693 49.0286 166.956C49.1602 167.22 38.3018 173.932 24.7452 181.961C11.2544 190.055 0.132801 196.373 0.00118398 196.11Z" fill="#E0E0E0"/>
<path d="M83.0517 177.815C83.3149 177.749 87.5925 189.661 92.6597 204.402C97.727 219.209 101.61 231.252 101.346 231.317C101.083 231.383 96.8057 219.472 91.7384 204.731C86.6712 189.924 82.7885 177.881 83.0517 177.815Z" fill="#E0E0E0"/>
<path d="M322.727 110.092L222.486 127.082L233.945 194.688L334.185 177.698L322.727 110.092Z" fill="#E0E0E0"/>
<path d="M322.727 110.098C322.727 110.098 322.464 110.493 321.938 111.151C321.345 111.875 320.556 112.862 319.569 114.047C317.397 116.613 314.37 120.233 310.684 124.708C303.051 133.723 292.587 146.03 281.071 159.652L280.807 159.915L280.478 159.718C280.215 159.586 279.952 159.455 279.689 159.257C263.895 150.439 249.614 142.476 239.151 136.619C234.017 133.723 229.872 131.354 226.91 129.643C225.528 128.854 224.409 128.195 223.62 127.735C222.896 127.274 222.501 127.011 222.501 127.011C222.501 127.011 222.962 127.208 223.686 127.603C224.541 128.064 225.66 128.656 227.042 129.38C230.069 131.025 234.281 133.263 239.414 136.093C249.877 141.884 264.224 149.781 280.083 158.467C280.347 158.599 280.61 158.796 280.873 158.928L280.281 159.06C291.929 145.503 302.458 133.263 310.092 124.313C313.909 119.969 317.002 116.416 319.174 113.849C320.227 112.665 321.082 111.743 321.674 111.019C322.398 110.427 322.727 110.098 322.727 110.098Z" fill="#EBEBEB"/>
<path d="M233.885 194.662C233.688 194.53 239.611 184.001 247.244 171.102C254.812 158.204 261.13 147.872 261.393 148.003C261.591 148.135 255.668 158.664 248.034 171.563C240.466 184.461 234.148 194.793 233.885 194.662Z" fill="#EBEBEB"/>
<path d="M294.561 141.554C294.758 141.357 303.708 149.32 314.698 159.257C325.623 169.26 334.375 177.486 334.178 177.683C333.98 177.88 325.03 169.918 314.04 159.981C303.116 149.978 294.363 141.752 294.561 141.554Z" fill="#EBEBEB"/>
<path d="M222.457 2.65534L204.397 48.5864L272.559 75.3867L290.619 29.4557L222.457 2.65534Z" fill="#EBEBEB"/>
<path d="M290.613 30.0746C290.613 30.0746 290.349 30.2063 289.757 30.4037C289.099 30.6669 288.243 30.9301 287.19 31.325C284.887 32.1147 281.663 33.2334 277.78 34.5496C269.751 37.2478 258.695 40.9989 246.521 45.079L246.258 45.1448L246.126 44.8816C245.994 44.6841 245.928 44.4867 245.797 44.2893C239.348 32.9702 233.491 22.7699 229.213 15.2677C227.173 11.5824 225.462 8.55524 224.277 6.44936C223.751 5.46223 223.29 4.67253 222.961 4.01445C222.698 3.48798 222.501 3.15894 222.566 3.15894C222.566 3.15894 222.764 3.42217 223.093 3.94864C223.422 4.54092 223.948 5.33062 224.541 6.31775C225.791 8.42362 227.568 11.385 229.674 15.0703C234.017 22.5067 239.94 32.707 246.455 44.0261C246.587 44.2235 246.652 44.4209 246.784 44.6183L246.389 44.4867C258.63 40.4724 269.62 36.7871 277.714 34.1548C281.663 32.9044 284.887 31.8515 287.19 31.1276C288.243 30.7985 289.099 30.5353 289.757 30.3379C290.283 30.1404 290.613 30.0746 290.613 30.0746Z" fill="#E0E0E0"/>
<path d="M204.403 49.2248C204.337 49.0932 211.905 44.7498 221.381 39.6825C230.858 34.5495 238.557 30.5351 238.689 30.7326C238.755 30.8642 231.187 35.1417 221.71 40.2748C212.234 45.3421 204.534 49.3564 204.403 49.2248Z" fill="#E0E0E0"/>
<path d="M261.591 39.0246C261.788 38.9588 264.355 47.1848 267.382 57.451C270.409 67.6513 272.713 76.009 272.581 76.0748C272.384 76.1406 269.817 67.9145 266.79 57.6484C263.697 47.3822 261.393 39.0246 261.591 39.0246Z" fill="#E0E0E0"/>
<path d="M89.8301 113.191L245.072 112.072L249.416 217.563L88.6455 216.115L89.8301 113.191Z" fill="#2AAEE5"/>
<path d="M89.8301 113.19L163.272 53.7653C166.365 51.2646 170.84 51.2646 173.933 53.8312L245.007 112.138" fill="#80D5F9"/>
<path d="M88.6454 216.115C88.448 215.918 100.886 202.361 116.417 185.843C131.947 169.26 144.648 156.032 144.846 156.229C145.043 156.427 132.605 169.983 117.075 186.501C101.61 203.019 88.8428 216.313 88.6454 216.115Z" fill="#263238"/>
<path d="M249.416 217.563C249.219 217.76 237.11 204.467 222.369 187.883C207.628 171.299 195.848 157.743 196.045 157.545C196.243 157.348 208.352 170.641 223.093 187.225C237.834 203.809 249.614 217.431 249.416 217.563Z" fill="#263238"/>
<g opacity="0.5">
<g opacity="0.5">
<g opacity="0.5">
<path opacity="0.5" d="M245.072 112.072L167.155 174.327L89.8301 113.191" fill="black"/>
</g>
</g>
</g>
<path d="M97.6623 118.983L97.4648 70.4816L233.359 68.8364L234.873 119.904L167.156 173.538L97.6623 118.983Z" fill="#FAFAFA"/>
<path d="M97.6611 118.982C97.6611 118.982 98.1217 119.311 98.9114 119.969C99.767 120.627 101.017 121.614 102.597 122.865C105.821 125.365 110.56 129.116 116.614 133.855C128.723 143.331 146.096 156.953 167.155 173.471H166.957C186.503 158.006 209.601 139.646 234.674 119.837L234.609 119.969C234.345 110.229 234.016 100.029 233.687 89.6312C233.49 82.6555 233.293 75.7456 233.095 68.9673L233.293 69.1648C178.54 69.757 130.171 70.3493 97.3978 70.6784L97.5295 70.5467C97.5953 85.8143 97.5953 97.9231 97.6611 106.215C97.6611 110.361 97.6611 113.586 97.6611 115.757C97.6611 116.81 97.6611 117.666 97.6611 118.192C97.6611 118.653 97.6611 118.982 97.6611 118.982C97.6611 118.982 97.6611 118.719 97.6611 118.126C97.6611 117.6 97.6611 116.744 97.6611 115.691C97.6611 113.52 97.5953 110.361 97.5953 106.215C97.5295 97.9231 97.4636 85.7485 97.332 70.4809V70.3493H97.4637C130.302 69.9545 178.606 69.3622 233.358 68.7041H233.556V68.9015C233.753 75.6798 233.951 82.5897 234.148 89.5654C234.477 99.9632 234.74 110.163 235.069 119.903V119.969L235.004 120.035C209.93 139.843 186.766 158.204 167.221 173.669L167.155 173.735L167.089 173.669C146.03 157.085 128.657 143.397 116.548 133.92C110.494 129.182 105.821 125.431 102.597 122.93C101.017 121.68 99.7669 120.693 98.9772 120.035C98.0559 119.311 97.6611 118.982 97.6611 118.982Z" fill="#263238"/>
<path d="M211.839 93.2504C211.839 93.3162 191.043 93.5795 165.444 93.7111C139.779 93.8427 119.049 93.9085 119.049 93.8427C119.049 93.7769 139.844 93.5137 165.444 93.382C191.109 93.2504 211.839 93.1846 211.839 93.2504Z" fill="#263238"/>
<path d="M211.839 106.939C211.839 107.004 191.043 107.268 165.444 107.399C139.779 107.531 119.049 107.597 119.049 107.531C119.049 107.465 139.844 107.202 165.444 107.07C191.109 106.939 211.839 106.873 211.839 106.939Z" fill="#263238"/>
<path d="M211.839 122.733C211.839 122.798 191.043 123.062 165.444 123.193C139.779 123.325 119.049 123.391 119.049 123.325C119.049 123.259 139.844 122.996 165.444 122.864C191.109 122.733 211.839 122.667 211.839 122.733Z" fill="#263238"/>
<path d="M211.839 138.527C211.839 138.593 192.031 138.79 167.55 138.988C143.069 139.119 123.261 139.185 123.261 139.053C123.261 138.988 143.069 138.79 167.55 138.593C192.031 138.461 211.839 138.461 211.839 138.527Z" fill="#263238"/>
<path d="M194.466 152.412C194.466 152.412 194.268 152.412 193.939 152.478C193.544 152.478 193.018 152.478 192.36 152.544C190.978 152.544 189.004 152.61 186.634 152.61C181.765 152.676 175.052 152.807 167.682 152.873C160.311 153.005 153.599 153.07 148.729 153.07C146.36 153.07 144.385 153.07 143.003 153.07C142.345 153.07 141.819 153.07 141.424 153.07C141.095 153.07 140.897 153.07 140.897 153.07C140.897 153.07 141.095 153.07 141.424 153.005C141.819 153.005 142.345 153.005 143.003 152.939C144.385 152.939 146.36 152.873 148.729 152.873C153.599 152.807 160.311 152.676 167.682 152.61C175.052 152.478 181.765 152.412 186.634 152.412C189.004 152.412 190.978 152.412 192.36 152.412C193.018 152.412 193.544 152.412 193.939 152.412C194.268 152.347 194.466 152.347 194.466 152.412Z" fill="#263238"/>
<path d="M176.96 165.706C176.96 165.772 172.551 165.903 167.089 165.903C161.627 165.903 157.218 165.837 157.218 165.706C157.218 165.64 161.627 165.508 167.089 165.508C172.551 165.508 176.96 165.64 176.96 165.706Z" fill="#263238"/>
</svg>
