<svg width="32" height="22" viewBox="0 0 32 22" fill="none" xmlns="http://www.w3.org/2000/svg">
<g filter="url(#filter0_d_572_583)">
<path d="M26.46 0.00644088C26.546 -0.00214696 26.6325 -0.00214696 26.7185 0.00644088L15.1523 10.3808C14.8042 10.5989 14.4059 10.714 14 10.714C13.5941 10.714 13.1958 10.5989 12.8477 10.3808L1.28154 0.00644088C1.3675 -0.00214696 1.45404 -0.00214696 1.54 0.00644088H26.46ZM28 16.4142C27.9993 16.6242 27.9588 16.8319 27.8809 17.0254C27.803 17.2189 27.6892 17.3944 27.5461 17.5418C27.4029 17.6892 27.2333 17.8056 27.0469 17.8842C26.8605 17.9628 26.661 18.0021 26.46 17.9999H1.54C1.33898 18.0021 1.13953 17.9628 0.953132 17.8842C0.766735 17.8056 0.597076 17.6892 0.45393 17.5418C0.310784 17.3944 0.196979 17.2189 0.119073 17.0254C0.0411672 16.8319 0.00069904 16.6242 0 16.4142V1.59212C0.00133992 1.30014 0.0795797 1.01418 0.226154 0.765541L12.0723 11.3648L12.1423 11.421C12.6907 11.781 13.3253 11.9719 13.9731 11.9719C14.6208 11.9719 15.2554 11.781 15.8038 11.421L15.8738 11.3648L27.72 0.765541C27.8856 1.00825 27.9826 1.29465 28 1.59212V16.4142Z" fill="black"/>
<path d="M26.46 0.00644088C26.546 -0.00214696 26.6325 -0.00214696 26.7185 0.00644088L15.1523 10.3808C14.8042 10.5989 14.4059 10.714 14 10.714C13.5941 10.714 13.1958 10.5989 12.8477 10.3808L1.28154 0.00644088C1.3675 -0.00214696 1.45404 -0.00214696 1.54 0.00644088H26.46ZM28 16.4142C27.9993 16.6242 27.9588 16.8319 27.8809 17.0254C27.803 17.2189 27.6892 17.3944 27.5461 17.5418C27.4029 17.6892 27.2333 17.8056 27.0469 17.8842C26.8605 17.9628 26.661 18.0021 26.46 17.9999H1.54C1.33898 18.0021 1.13953 17.9628 0.953132 17.8842C0.766735 17.8056 0.597076 17.6892 0.45393 17.5418C0.310784 17.3944 0.196979 17.2189 0.119073 17.0254C0.0411672 16.8319 0.00069904 16.6242 0 16.4142V1.59212C0.00133992 1.30014 0.0795797 1.01418 0.226154 0.765541L12.0723 11.3648L12.1423 11.421C12.6907 11.781 13.3253 11.9719 13.9731 11.9719C14.6208 11.9719 15.2554 11.781 15.8038 11.421L15.8738 11.3648L27.72 0.765541C27.8856 1.00825 27.9826 1.29465 28 1.59212V16.4142Z" fill="url(#paint0_linear_572_583)"/>
</g>
<defs>
<filter id="filter0_d_572_583" x="0" y="0" width="32" height="22" filterUnits="userSpaceOnUse" color-interpolation-filters="sRGB">
<feFlood flood-opacity="0" result="BackgroundImageFix"/>
<feColorMatrix in="SourceAlpha" type="matrix" values="0 0 0 0 0 0 0 0 0 0 0 0 0 0 0 0 0 0 127 0" result="hardAlpha"/>
<feOffset dx="2" dy="2"/>
<feGaussianBlur stdDeviation="1"/>
<feComposite in2="hardAlpha" operator="out"/>
<feColorMatrix type="matrix" values="0 0 0 0 0 0 0 0 0 0 0 0 0 0 0 0 0 0 0.08 0"/>
<feBlend mode="normal" in2="BackgroundImageFix" result="effect1_dropShadow_572_583"/>
<feBlend mode="normal" in="SourceGraphic" in2="effect1_dropShadow_572_583" result="shape"/>
</filter>
<linearGradient id="paint0_linear_572_583" x1="14" y1="-2.5" x2="14" y2="20" gradientUnits="userSpaceOnUse">
<stop stop-color="#351BD1"/>
<stop offset="0.582334" stop-color="#21C3E6"/>
<stop offset="1" stop-color="#30E4E4"/>
</linearGradient>
</defs>
</svg>
