<svg width="40" height="26" viewBox="0 0 40 26" fill="none" xmlns="http://www.w3.org/2000/svg">
<path d="M35.1074 20.5989C35.2857 20.5258 35.4641 20.4601 35.6391 20.4093L36.9539 20.0215C38.4858 19.5705 38.5085 18.7873 37.0041 18.283L33.9775 17.2682C32.4715 16.7651 30.0123 15.9387 28.5063 15.4356L25.4796 14.4208C23.972 13.9164 23.283 14.4443 23.9428 15.5942L25.2721 17.9088C25.9287 19.0587 27.01 20.9397 27.6698 22.0895L28.9958 24.4042C29.6572 25.5541 30.6802 25.5355 31.2719 24.3645L31.7777 23.3609C31.8457 23.227 31.9317 23.0907 32.0273 22.9544L36.012 26.0001L39.0921 23.6471L35.1074 20.5989Z" fill="white"/>
<path d="M0.41748 1.64552V5.62179C0.41748 6.53005 1.38204 7.26731 2.56869 7.26731H9.74697V0H2.56869C1.38204 0 0.41748 0.737263 0.41748 1.64552ZM5.07979 6.16204C4.69559 6.16204 4.38271 5.92413 4.38271 5.62798C4.38271 5.33556 4.69397 5.09517 5.07979 5.09517C5.46562 5.09517 5.77849 5.33432 5.77849 5.62798C5.77687 5.92413 5.46562 6.16204 5.07979 6.16204ZM5.06682 1.10404C5.73472 1.10404 6.29562 1.30973 6.64416 1.68393C6.99432 2.06186 7.08997 2.56617 6.89057 3.00357C6.7625 3.28733 6.5015 3.51408 6.24861 3.7334C5.91466 4.02211 5.62448 4.27117 5.62448 4.61688H4.5351C4.5351 3.95644 5.03278 3.52523 5.43319 3.18077C5.62286 3.01597 5.80443 2.85984 5.86279 2.73097C5.92925 2.58104 5.92601 2.34685 5.75741 2.16842C5.61476 2.01477 5.3797 1.93671 5.06682 1.93671C4.39082 1.93671 4.26437 2.54015 4.25303 2.6083L3.17175 2.50546C3.24956 2.02097 3.744 1.10404 5.06682 1.10404Z" fill="white"/>
<path d="M33.7749 5.62179V1.64552C33.7749 0.737263 32.8087 0 31.6221 0H12.0796V7.26731H31.6221C32.8087 7.26731 33.7749 6.53005 33.7749 5.62179Z" fill="white"/>
<path d="M0.41748 10.4878V14.4641C0.41748 15.3723 1.38204 16.1096 2.56869 16.1096H9.74697V8.84229H2.56869C1.38204 8.84229 0.41748 9.57707 0.41748 10.4878ZM5.07979 15.0043C4.69559 15.0043 4.38271 14.7664 4.38271 14.4703C4.38271 14.1766 4.69397 13.9375 5.07979 13.9375C5.46562 13.9375 5.77849 14.1754 5.77849 14.4703C5.77687 14.7664 5.46562 15.0043 5.07979 15.0043ZM5.06682 9.94632C5.73472 9.94632 6.29562 10.152 6.64416 10.5262C6.99594 10.9029 7.08997 11.4085 6.89057 11.8446C6.7625 12.1284 6.5015 12.3551 6.24861 12.5732C5.91628 12.8632 5.62448 13.1135 5.62448 13.4592H4.5351C4.5351 12.7987 5.03278 12.3675 5.43319 12.023C5.62286 11.857 5.80443 11.7009 5.86279 11.5733C5.92925 11.4233 5.92601 11.1891 5.75741 11.0107C5.61638 10.8571 5.38294 10.779 5.06844 10.779C4.39244 10.779 4.26599 11.3812 4.25465 11.4506L3.17175 11.3477C3.24956 10.862 3.744 9.94632 5.06682 9.94632Z" fill="white"/>
<path d="M0.41748 19.3274V23.3049C0.41748 24.2132 1.38204 24.9504 2.56869 24.9504H9.74697V17.6819H2.56869C1.38204 17.6819 0.41748 18.4191 0.41748 19.3274ZM5.07979 23.8464C4.69559 23.8464 4.38271 23.6085 4.38271 23.3123C4.38271 23.0187 4.69397 22.7795 5.07979 22.7795C5.46562 22.7795 5.77849 23.0174 5.77849 23.3123C5.77687 23.6085 5.46562 23.8464 5.07979 23.8464ZM5.06682 18.7872C5.73472 18.7872 6.29562 18.9941 6.64416 19.3683C6.99594 19.745 7.08997 20.2505 6.89057 20.6867C6.7625 20.9705 6.5015 21.196 6.24861 21.4153C5.91628 21.704 5.62448 21.9555 5.62448 22.3012H4.5351C4.5351 21.6396 5.03278 21.2096 5.43319 20.8639C5.62286 20.6991 5.80443 20.543 5.86279 20.4141C5.92925 20.2642 5.92601 20.0312 5.75741 19.8515C5.61638 19.6991 5.38294 19.6198 5.06844 19.6198C4.39244 19.6198 4.26599 20.2233 4.25465 20.2927L3.17175 20.1886C3.24956 19.7041 3.744 18.7872 5.06682 18.7872Z" fill="white"/>
<path d="M22.291 13.6981C22.7595 13.1492 23.5603 12.8332 24.4859 12.8332C25.0193 12.8332 25.5996 12.9373 26.2092 13.1417L33.2691 15.5084C33.5787 15.2234 33.7733 14.8628 33.7733 14.4626V10.4863C33.7733 9.57684 32.8071 8.84082 31.6204 8.84082H12.0796V16.1081H22.2488C21.5939 14.9322 21.9051 14.1479 22.291 13.6981Z" fill="white"/>
<path d="M12.0796 17.6821V24.9519H27.3213L23.1485 17.6821H12.0796Z" fill="white"/>
</svg>
