<svg width="272" height="338" viewBox="0 0 272 338" fill="none" xmlns="http://www.w3.org/2000/svg">
<path fill-rule="evenodd" clip-rule="evenodd" d="M263.402 218H80.5987C76.9544 218 74 215.046 74 211.403V33.5983C74 29.9542 76.9544 27 80.5987 27H263.402C267.046 27 270 29.9542 270 33.5983V211.403C270 215.046 267.046 218 263.402 218Z" fill="#E5E5FF"/>
<path fill-rule="evenodd" clip-rule="evenodd" d="M80.8477 27.534C77.3663 27.534 74.5341 30.3659 74.5341 33.8469V211.154C74.5341 214.634 77.3663 217.466 80.8477 217.466H263.151C266.633 217.466 269.466 214.634 269.466 211.154V33.8469C269.466 30.3659 266.633 27.534 263.151 27.534H80.8477ZM263.151 218H80.8477C77.0719 218 74 214.928 74 211.154V33.8469C74 30.0715 77.0719 27 80.8477 27H263.151C266.928 27 270 30.0715 270 33.8469V211.154C270 214.928 266.928 218 263.151 218Z" fill="#CBCBFF"/>
<rect x="84" y="35" width="176" height="113" rx="10" fill="white"/>
<path fill-rule="evenodd" clip-rule="evenodd" d="M84 153H148V150H84V153Z" fill="#B7B7FF"/>
<path fill-rule="evenodd" clip-rule="evenodd" d="M84 161H249V158H84V161Z" fill="#CBCBFF"/>
<path fill-rule="evenodd" clip-rule="evenodd" d="M82 203H259V171H82V203Z" fill="white"/>
<path fill-rule="evenodd" clip-rule="evenodd" d="M106 184H257V183H106V184Z" fill="#B7B7FF"/>
<path fill-rule="evenodd" clip-rule="evenodd" d="M106 177H257V176H106V177Z" fill="#B7B7FF"/>
<path fill-rule="evenodd" clip-rule="evenodd" d="M106 192H257V191H106V192Z" fill="#B7B7FF"/>
<path fill-rule="evenodd" clip-rule="evenodd" d="M106 200H257V199H106V200Z" fill="#B7B7FF"/>
<path fill-rule="evenodd" clip-rule="evenodd" d="M125 202H126V171H125V202Z" fill="#B7B7FF"/>
<path fill-rule="evenodd" clip-rule="evenodd" d="M147 202H148V171H147V202Z" fill="#B7B7FF"/>
<path fill-rule="evenodd" clip-rule="evenodd" d="M170 202H171V171H170V202Z" fill="#B7B7FF"/>
<path fill-rule="evenodd" clip-rule="evenodd" d="M191 202H192V171H191V202Z" fill="#B7B7FF"/>
<path fill-rule="evenodd" clip-rule="evenodd" d="M212 202H213V171H212V202Z" fill="#B7B7FF"/>
<path fill-rule="evenodd" clip-rule="evenodd" d="M235 202H236V171H235V202Z" fill="#B7B7FF"/>
<path fill-rule="evenodd" clip-rule="evenodd" d="M259.322 92.082C258.855 92.7494 258.07 93.0055 257.569 92.6545C257.069 92.3033 257.042 91.4779 257.509 90.8108C257.978 90.1435 258.763 89.8874 259.264 90.2383C259.764 90.5895 259.791 91.4149 259.322 92.082Z" fill="white"/>
<path fill-rule="evenodd" clip-rule="evenodd" d="M106.281 101.78C105.575 102.212 104.652 101.989 104.22 101.282C103.788 100.575 104.012 99.6515 104.718 99.2199C105.425 98.7883 106.348 99.0115 106.78 99.7183C107.212 100.425 106.988 101.348 106.281 101.78Z" fill="white"/>
<path d="M74.1576 312.608L73.6709 336.215L104.742 336.945C104.661 334.106 88.679 328.103 88.679 328.103L89.6525 313.014L74.1576 312.608Z" fill="#455A64"/>
<g opacity="0.6">
<g opacity="0.6">
<g opacity="0.6">
<g opacity="0.6">
<g opacity="0.6">
<g opacity="0.6">
<g opacity="0.6">
<g opacity="0.6">
<g opacity="0.6">
<g opacity="0.6">
<g opacity="0.6">
<g opacity="0.6">
<g opacity="0.6">
<path opacity="0.6" d="M79.1061 326.643C78.5383 326.805 78.0515 327.373 78.2138 328.022C78.376 328.59 79.025 328.995 79.5929 328.914C80.1608 328.752 80.7286 328.022 80.5664 327.454C80.4041 326.886 79.5929 326.48 79.025 326.724" fill="white"/>
</g>
</g>
</g>
</g>
</g>
</g>
</g>
</g>
</g>
</g>
</g>
</g>
</g>
<g opacity="0.6">
<g opacity="0.6">
<g opacity="0.6">
<g opacity="0.6">
<g opacity="0.6">
<g opacity="0.6">
<g opacity="0.6">
<g opacity="0.6">
<g opacity="0.6">
<g opacity="0.6">
<g opacity="0.6">
<g opacity="0.6">
<path opacity="0.6" d="M73.6709 336.215L73.8332 333.862L103.525 335.485C103.525 335.485 104.904 336.053 104.742 337.026L73.6709 336.215Z" fill="white"/>
</g>
</g>
</g>
</g>
</g>
</g>
</g>
</g>
</g>
</g>
</g>
</g>
<path d="M89.1655 328.022C89.1655 328.184 88.4354 328.184 87.6241 328.671C86.894 329.076 86.4884 329.725 86.3261 329.644C86.1639 329.644 86.4073 328.752 87.3808 328.265C88.3543 327.697 89.2466 327.859 89.1655 328.022Z" fill="#263238"/>
<path d="M92.4108 329.32C92.4108 329.482 91.7618 329.725 91.2751 330.293C90.7072 330.861 90.5449 331.51 90.4638 331.51C90.3016 331.51 90.2204 330.699 90.9506 329.969C91.5184 329.239 92.4108 329.239 92.4108 329.32Z" fill="#263238"/>
<path d="M94.1954 333.052C94.0332 333.052 93.8709 332.321 94.2766 331.591C94.6822 330.78 95.4123 330.537 95.4934 330.618C95.5745 330.699 95.0878 331.186 94.7633 331.754C94.3577 332.484 94.3577 333.052 94.1954 333.052Z" fill="#263238"/>
<path d="M89.0033 324.533C88.9221 324.695 88.2731 324.452 87.3808 324.452C86.4884 324.452 85.8394 324.695 85.7583 324.614C85.6772 324.533 86.3262 323.965 87.3808 323.965C88.4354 323.965 89.0844 324.452 89.0033 324.533Z" fill="#263238"/>
<path d="M88.3546 321.045C88.3546 321.126 87.7868 321.207 86.8133 320.964C86.3265 320.883 85.7586 320.721 85.1908 320.477C84.8663 320.315 84.6229 320.153 84.2984 319.99C84.1361 319.909 83.9739 319.828 83.8117 319.666C83.6494 319.504 83.5683 319.098 83.7305 318.936C83.8928 318.692 84.2173 318.611 84.3795 318.611C84.6229 318.611 84.7851 318.692 84.9474 318.692C85.2719 318.774 85.5964 318.936 85.9209 319.017C86.4888 319.26 86.9755 319.585 87.3 319.909C88.0301 320.558 88.2735 321.126 88.1924 321.126C88.1113 321.207 87.7868 320.721 87.0566 320.153C86.7321 319.909 86.2454 319.585 85.6775 319.341C85.4341 319.26 85.1096 319.098 84.7852 319.098C84.4607 319.017 84.2173 319.017 84.055 319.098C84.055 319.179 84.055 319.179 84.055 319.26C84.1361 319.341 84.2173 319.423 84.3795 319.504C84.6229 319.666 84.9474 319.828 85.1908 319.99C85.7586 320.234 86.2454 320.477 86.651 320.558C87.7868 320.883 88.3546 320.964 88.3546 321.045Z" fill="#263238"/>
<path d="M88.1922 321.207C88.1111 321.207 87.8677 320.72 87.7866 319.747C87.7866 319.26 87.8677 318.692 88.03 318.124C88.1111 317.8 88.2734 317.557 88.4356 317.232C88.5979 316.908 88.8412 316.583 89.4091 316.502C89.7336 316.502 89.977 316.745 90.0581 316.908C90.1392 317.07 90.1392 317.313 90.2204 317.475C90.3015 317.8 90.2204 318.124 90.2204 318.449C90.1392 319.098 89.8147 319.585 89.4902 319.99C88.8412 320.72 88.1922 320.883 88.1922 320.883C88.1111 320.802 88.679 320.558 89.1657 319.828C89.4091 319.504 89.6525 319.017 89.7336 318.449C89.7336 318.206 89.8147 317.881 89.7336 317.638C89.7336 317.313 89.5714 317.07 89.4902 317.07C89.328 317.07 89.0846 317.313 88.9224 317.557C88.7601 317.8 88.5979 318.043 88.5167 318.368C88.2734 318.855 88.1922 319.422 88.1922 319.828C88.1111 320.72 88.2734 321.207 88.1922 321.207Z" fill="#263238"/>
<path d="M50.6322 314.636L47.6306 338L16.8032 334.187C17.29 331.429 33.9205 327.778 33.9205 327.778L35.1374 312.689L50.6322 314.636Z" fill="#455A64"/>
<g opacity="0.6">
<g opacity="0.6">
<g opacity="0.6">
<g opacity="0.6">
<g opacity="0.6">
<g opacity="0.6">
<g opacity="0.6">
<g opacity="0.6">
<g opacity="0.6">
<g opacity="0.6">
<g opacity="0.6">
<g opacity="0.6">
<g opacity="0.6">
<path opacity="0.6" d="M43.6549 327.697C44.2228 327.941 44.5473 328.59 44.385 329.157C44.1417 329.725 43.4116 330.05 42.8437 329.806C42.2758 329.563 41.8702 328.752 42.1136 328.265C42.3569 327.778 43.2493 327.373 43.7361 327.778" fill="white"/>
</g>
</g>
</g>
</g>
</g>
</g>
</g>
</g>
</g>
</g>
</g>
</g>
</g>
<g opacity="0.6">
<g opacity="0.6">
<g opacity="0.6">
<g opacity="0.6">
<g opacity="0.6">
<g opacity="0.6">
<g opacity="0.6">
<g opacity="0.6">
<g opacity="0.6">
<g opacity="0.6">
<g opacity="0.6">
<g opacity="0.6">
<path opacity="0.6" d="M47.6299 338L47.7922 335.647L18.1817 332.889C18.1817 332.889 16.7215 333.295 16.8026 334.187L47.6299 338Z" fill="white"/>
</g>
</g>
</g>
</g>
</g>
</g>
</g>
</g>
</g>
</g>
</g>
</g>
<path d="M33.5142 327.616C33.5142 327.778 34.2443 327.94 34.8933 328.427C35.6234 328.995 35.8668 329.644 36.029 329.563C36.1913 329.563 36.029 328.67 35.2178 328.021C34.4065 327.372 33.5142 327.454 33.5142 327.616Z" fill="#263238"/>
<path d="M30.107 328.427C30.0259 328.589 30.6749 328.914 31.0805 329.563C31.5673 330.212 31.5673 330.861 31.7295 330.861C31.8918 330.861 32.054 330.05 31.4862 329.238C30.9994 328.508 30.107 328.346 30.107 328.427Z" fill="#263238"/>
<path d="M27.8355 331.916C27.9978 331.997 28.2412 331.267 27.9978 330.455C27.6733 329.644 27.0243 329.239 26.9432 329.32C26.862 329.401 27.2677 329.888 27.511 330.618C27.7544 331.267 27.6733 331.835 27.8355 331.916Z" fill="#263238"/>
<path d="M34.1631 324.209C34.2442 324.371 34.8932 324.209 35.7856 324.371C36.5968 324.533 37.2458 324.858 37.3269 324.776C37.4081 324.695 36.8402 324.046 35.8667 323.884C34.8932 323.722 34.1631 324.046 34.1631 324.209Z" fill="#263238"/>
<path d="M35.2988 320.801C35.2988 320.883 35.8667 321.045 36.8402 320.964C37.3269 320.964 37.8948 320.883 38.5438 320.72C38.8683 320.639 39.1928 320.558 39.5173 320.396C39.6796 320.315 39.8418 320.234 40.0041 320.071C40.1663 319.909 40.3286 319.585 40.1663 319.341C40.0041 319.098 39.7607 318.936 39.5173 318.936C39.2739 318.936 39.1117 318.936 38.9494 318.936C38.6249 318.936 38.3004 319.017 37.9759 319.098C37.3269 319.26 36.8402 319.503 36.4346 319.828C35.6233 320.396 35.2988 320.883 35.38 320.883C35.4611 320.964 35.8667 320.558 36.5968 320.071C37.0024 319.828 37.4892 319.666 38.0571 319.503C38.3816 319.422 38.6249 319.341 38.9494 319.341C39.2739 319.26 39.5984 319.341 39.5984 319.503C39.5984 319.585 39.5984 319.585 39.5173 319.666C39.4362 319.747 39.2739 319.828 39.1117 319.909C38.7872 320.071 38.5438 320.152 38.2193 320.234C37.6514 320.396 37.0836 320.558 36.6779 320.558C35.9478 320.801 35.38 320.72 35.2988 320.801Z" fill="#263238"/>
<path d="M35.5424 321.045C35.6235 321.045 35.948 320.639 36.1103 319.666C36.1914 319.179 36.1914 318.611 36.1103 318.043C36.0291 317.719 35.948 317.394 35.7858 317.07C35.6235 316.745 35.4613 316.339 34.8934 316.177C34.5689 316.096 34.3255 316.339 34.1633 316.502C34.001 316.664 34.001 316.826 33.9199 316.988C33.8388 317.313 33.7577 317.638 33.8388 317.962C33.8388 318.611 34.0822 319.179 34.3255 319.584C34.8123 320.396 35.4613 320.639 35.4613 320.639C35.5424 320.558 35.0556 320.233 34.65 319.422C34.4878 319.017 34.3255 318.53 34.3255 317.962C34.3255 317.719 34.4067 317.394 34.4878 317.151C34.5689 316.826 34.7311 316.583 34.8123 316.664C34.9745 316.664 35.2179 316.907 35.299 317.232C35.4613 317.475 35.5424 317.8 35.6235 318.043C35.7858 318.611 35.7858 319.098 35.7858 319.503C35.6235 320.477 35.4613 321.045 35.5424 321.045Z" fill="#263238"/>
<path d="M98.2517 187.433L49.9014 188.974C49.9014 188.974 38.544 265.069 38.7873 270.342L31.7295 325.507L52.1729 326.237C52.1729 326.237 55.4179 308.308 57.6083 296.059C59.0685 287.946 61.8267 275.94 62.5569 269.125C63.287 262.311 75.2123 214.772 75.2123 214.772C75.2123 214.772 74.3199 269.936 74.3199 272.208C74.3199 274.479 71.9673 326.156 71.9673 326.156H92.2485C93.3031 316.826 95.818 279.509 96.3047 271.965C97.2782 258.336 100.361 219.883 100.767 210.066C101.416 200.331 98.2517 187.433 98.2517 187.433Z" fill="#263238"/>
<path d="M95.0875 187.838C95.0064 187.838 94.9253 187.027 94.9253 186.135C94.9253 185.161 95.0064 184.431 95.0875 184.431C95.1687 184.431 95.2498 185.242 95.2498 186.135C95.2498 187.027 95.1687 187.838 95.0875 187.838Z" fill="#455A64"/>
<path d="M97.0347 188.731C96.9536 188.731 96.7102 187.757 96.8724 186.54C96.9536 185.324 97.3592 184.35 97.4403 184.35C97.5214 184.35 97.3592 185.324 97.197 186.54C97.1158 187.757 97.1969 188.731 97.0347 188.731Z" fill="#455A64"/>
<path d="M79.025 185.08C79.025 185.161 78.4571 185.08 77.9704 185.648C77.727 185.891 77.5648 186.378 77.6459 186.784C77.727 187.189 78.1326 187.595 78.7005 187.676C79.1873 187.757 79.7551 187.595 79.9985 187.189C80.2419 186.784 80.2419 186.378 80.0796 185.973C79.8363 185.242 79.2684 185.08 79.3495 185.08C79.3495 185.08 79.5118 185.08 79.674 185.161C79.9174 185.242 80.1608 185.486 80.323 185.891C80.4853 186.297 80.5664 186.784 80.2419 187.352C79.9174 187.92 79.2684 188.163 78.6194 188.001C77.9704 187.92 77.4025 187.352 77.3214 186.784C77.2403 186.216 77.4836 185.729 77.8081 185.405C78.1326 185.08 78.4571 184.999 78.7005 184.999C78.8628 184.999 79.025 185.08 79.025 185.08Z" fill="#455A64"/>
<path d="M56.716 269.044C56.716 269.125 54.3634 268.233 51.524 267.097C48.6847 265.961 46.4132 264.907 46.4943 264.825C46.4943 264.744 48.8469 265.637 51.6863 266.772C54.5256 267.989 56.7971 268.963 56.716 269.044Z" fill="#455A64"/>
<path d="M54.1199 73.128C54.2821 70.2887 55.9857 68.5851 58.4195 67.1248C60.8532 65.6646 64.0171 65.5835 66.5319 66.7192C68.2356 67.5304 69.6958 68.9096 71.5617 69.1529C74.6444 69.5586 77.5649 66.7192 80.5665 67.4493C82.3512 67.8549 83.7304 69.6397 83.6492 71.5055C83.5681 73.3714 82.1079 74.9939 80.242 75.3184C82.2701 75.6429 83.4059 78.1578 82.6757 80.0236C81.9456 81.8895 79.8364 83.0253 77.8083 83.0253C75.7801 83.1064 73.8332 82.214 72.0484 81.2405C70.2637 80.1859 68.6412 78.969 66.7753 78.0767C64.9094 77.1843 62.8002 76.6975 60.8532 77.1843C58.1761 77.9144 56.3102 80.4293 55.5801 83.1064C54.85 85.7835 55.1745 88.6229 55.5801 91.3C55.9857 94.0582 56.5536 96.8164 56.2291 99.4936C56.2291 99.8181 56.148 100.224 55.8235 100.305C55.4179 100.548 54.9311 100.143 54.6066 99.8181C51.1994 95.7618 48.6034 91.0566 46.9809 86.0269C46.0885 83.1064 45.5207 80.267 46.6564 77.4277C47.9544 74.6694 51.6861 71.9112 54.1199 73.128Z" fill="#263238"/>
<path d="M51.5241 86.6761L56.0671 114.502C56.8783 119.694 60.2855 124.724 68.398 123.02C75.3747 120.992 74.8069 115.962 73.9145 109.797C73.9145 109.797 73.9145 110.04 73.9145 109.797C73.9145 109.797 81.5402 107.769 80.8912 100.062C80.5667 96.3299 79.2687 88.6231 77.9707 81.6464C76.5916 74.1829 69.7771 68.9909 62.2325 69.8022L61.5024 69.8833C53.3899 71.1813 49.9827 78.7259 51.5241 86.6761Z" fill="#FFBE9D"/>
<path d="M73.9147 109.797C73.9147 109.797 69.0472 110.608 63.5308 107.85C63.5308 107.85 66.6135 113.609 74.2392 112.149L73.9147 109.797Z" fill="#EB996E"/>
<path d="M76.4297 88.4608C76.5108 89.0287 76.1052 89.5966 75.4562 89.6777C74.8883 89.7588 74.3204 89.3532 74.2393 88.7853C74.1582 88.2174 74.5638 87.6496 75.2128 87.5684C75.7807 87.4873 76.3485 87.8929 76.4297 88.4608Z" fill="#263238"/>
<path d="M76.6729 85.6212C76.5106 85.7835 75.6183 85.2156 74.4825 85.3779C73.2657 85.459 72.4544 86.1891 72.2922 86.0269C72.211 85.9457 72.3733 85.7024 72.6978 85.3779C73.0223 85.0534 73.6713 84.7289 74.4014 84.6477C75.1315 84.5666 75.7805 84.81 76.1861 85.0534C76.5918 85.2967 76.754 85.5401 76.6729 85.6212Z" fill="#263238"/>
<path d="M65.559 90.1639C65.6402 90.7318 65.2346 91.2997 64.5856 91.3808C64.0177 91.4619 63.4498 91.0563 63.3687 90.4884C63.2876 89.9206 63.6932 89.3527 64.3422 89.2716C64.9101 89.1904 65.4779 89.5961 65.559 90.1639Z" fill="#263238"/>
<path d="M65.1534 87.0001C64.9911 87.1624 64.0987 86.5945 62.963 86.7568C61.7461 86.8379 60.9349 87.568 60.7726 87.4058C60.6915 87.3246 60.8538 87.0813 61.1782 86.7568C61.5027 86.4323 62.1518 86.1078 62.8819 86.0267C63.612 85.9455 64.261 86.1889 64.6666 86.4323C65.0722 86.6757 65.2345 86.919 65.1534 87.0001Z" fill="#263238"/>
<path d="M70.1832 95.4373C70.1832 95.3561 70.9133 95.1939 72.0491 94.8694C72.3736 94.7883 72.617 94.7071 72.6981 94.4638C72.7792 94.2204 72.617 93.8959 72.3736 93.5714C72.0491 92.8413 71.6435 92.1112 71.2378 91.2999C69.6153 88.1361 68.4796 85.4589 68.5607 85.4589C68.723 85.3778 70.1021 87.8927 71.6435 91.1377C72.0491 91.9489 72.3736 92.679 72.7792 93.4091C72.9415 93.7336 73.1848 94.1393 73.0226 94.626C72.9415 94.8694 72.7792 95.0316 72.5358 95.1128C72.3736 95.1939 72.2113 95.1939 72.0491 95.275C70.9133 95.4373 70.1832 95.5184 70.1832 95.4373Z" fill="#263238"/>
<path d="M64.8286 82.2953C64.7475 82.6198 63.5306 82.6198 62.1515 82.9443C60.7724 83.1876 59.6366 83.7555 59.4744 83.5121C59.3933 83.3499 59.5555 83.0254 59.9611 82.7009C60.3668 82.3764 61.0969 81.9708 61.9081 81.8085C62.7194 81.6463 63.5306 81.7274 64.0174 81.8085C64.5041 81.8896 64.8286 82.133 64.8286 82.2953Z" fill="#263238"/>
<path d="M75.8614 82.2142C75.6991 82.5387 74.8068 82.2953 73.8333 82.3764C72.8598 82.4575 72.0485 82.782 71.8051 82.4575C71.724 82.2953 71.8051 82.0519 72.1296 81.7274C72.4541 81.4029 73.022 81.1595 73.7521 81.0784C74.4011 80.9973 75.0501 81.2407 75.4557 81.484C75.7802 81.8085 75.9425 82.0519 75.8614 82.2142Z" fill="#263238"/>
<path d="M52.741 92.3545C52.5787 92.2734 47.2245 91.2999 47.9546 96.573C48.6847 101.846 53.7956 100.061 53.7956 99.8991C53.7956 99.818 52.741 92.3545 52.741 92.3545Z" fill="#FFBE9D"/>
<path d="M51.9297 98.1955C51.9297 98.1955 51.8486 98.2767 51.6863 98.3578C51.5241 98.4389 51.2807 98.52 51.0373 98.4389C50.4695 98.2767 49.9016 97.4654 49.7393 96.4919C49.6582 96.0052 49.7393 95.5184 49.8205 95.1128C49.9016 94.7072 50.145 94.3827 50.3883 94.3015C50.6317 94.2204 50.8751 94.3015 50.9562 94.4638C51.0373 94.626 51.0373 94.7072 51.0373 94.7072C51.0373 94.7072 51.1185 94.626 51.0373 94.3827C51.0373 94.3015 50.9562 94.1393 50.794 94.0582C50.6317 93.977 50.4695 93.9771 50.2261 93.9771C49.8205 94.0582 49.496 94.4638 49.3337 94.9505C49.1715 95.4373 49.0903 95.924 49.1715 96.4919C49.3337 97.5465 50.0638 98.52 50.794 98.6012C51.1996 98.6823 51.443 98.52 51.6052 98.3578C51.9297 98.3578 51.9297 98.1955 51.9297 98.1955Z" fill="#EB996E"/>
<path d="M77.3213 74.4262C76.5101 72.9659 75.131 71.8302 73.6707 71.019C70.588 69.1531 66.8563 68.0985 63.2868 68.423C59.6362 68.7475 56.1478 70.37 53.7952 73.1282C51.9293 75.3186 50.7936 78.1579 50.4691 81.0784C50.1446 83.9989 50.4691 86.9194 51.2803 89.6776C51.6048 90.8945 52.0916 92.1925 53.0651 93.0037C53.6329 93.4905 54.6876 93.815 55.2554 93.2471C55.5799 92.9226 55.6611 92.4359 55.7422 91.9491C56.3912 87.7306 56.8779 83.2688 55.0121 79.4559C55.9044 77.9957 56.959 76.6977 58.3382 75.7242C59.7173 74.7507 61.4209 74.2639 63.1245 74.5884C65.5583 75.0752 67.2619 77.2656 69.29 78.6447C72.2105 80.6728 76.1856 81.1595 79.5117 79.8615L77.3213 74.4262Z" fill="#263238"/>
<path d="M71.237 98.6822C71.1559 99.1689 71.0748 99.6557 70.8314 100.142C70.588 100.629 70.2635 101.035 69.7768 101.116C69.29 101.278 68.641 101.035 68.3165 100.629C67.9109 100.224 67.7487 99.7368 67.6675 99.1689C67.5864 98.6822 67.6675 98.0332 68.1543 97.9521C68.3165 97.8709 68.5599 97.9521 68.7222 97.9521C69.6145 98.1143 70.5069 98.2766 71.3993 98.4388" fill="#EB996E"/>
<path d="M70.6691 100.954C70.6691 100.873 70.1012 101.197 69.2899 101.035C68.8843 100.954 68.3976 100.792 68.0731 100.305C67.7486 99.8993 67.5863 99.2503 67.6675 98.6824C67.6675 98.5202 67.7486 98.3579 67.8297 98.2768C67.9108 98.1145 67.9108 98.1957 67.992 98.1145C68.0731 98.1145 68.3164 98.1957 68.3976 98.1957C68.5598 98.1957 68.7221 98.2768 68.8032 98.2768C69.3711 98.3579 69.9389 98.439 70.3446 98.5202C71.2369 98.6824 71.8048 98.6824 71.8048 98.6824C71.8048 98.6013 71.3181 98.439 70.4257 98.2768C70.0201 98.1957 69.4522 98.0334 68.8843 97.9523C68.7221 97.9523 68.5598 97.8712 68.4787 97.8712C68.3164 97.8712 68.2353 97.79 67.992 97.79C67.9108 97.79 67.7486 97.79 67.5863 97.8712C67.5052 97.9523 67.4241 98.0334 67.343 98.1145C67.2618 98.2768 67.1807 98.439 67.1807 98.6824C67.0185 99.4125 67.2618 100.143 67.6675 100.629C68.0731 101.116 68.6409 101.36 69.1277 101.36C69.6144 101.441 70.0201 101.278 70.1823 101.197C70.5879 101.035 70.6691 100.954 70.6691 100.954Z" fill="#263238"/>
<path d="M90.3828 87.2435L91.5997 86.919L111.151 105.983L126.97 107.93C126.97 107.93 126.808 103.144 120.886 96.9785C115.531 91.5431 103.119 85.0532 98.9009 81.6459C97.8463 80.8347 97.035 80.5913 97.035 80.5913L90.3828 87.2435Z" fill="#FFBE9D"/>
<path d="M90.3824 78.1577L88.3543 77.5898L83.649 75.3184L78.2948 77.3465C78.2948 77.3465 78.3759 79.2123 79.8362 78.6445L74.2386 80.5103C74.2386 80.5103 74.7253 81.8083 74.9687 81.9706C75.2121 82.0517 71.6426 82.3762 71.6426 82.3762C71.6426 82.3762 71.6426 84.1609 74.9687 84.1609C78.3759 84.1609 79.6739 83.5119 79.6739 83.5119L82.351 84.2421L82.2699 85.8646L78.6193 85.7834L78.7816 87.8116C79.3494 88.0549 83.4868 88.5417 83.4868 88.5417C83.4868 88.5417 89.1655 88.6228 90.7069 87.8927C92.2482 87.1626 94.1952 86.1079 94.1952 86.1079L97.1157 80.5103L90.3824 78.1577Z" fill="#FFBE9D"/>
<path d="M85.3528 79.1314C85.3528 79.2125 85.0283 79.0503 84.5415 78.8069C84.0548 78.5635 83.3246 78.3202 82.5945 77.7523H82.8379C82.7568 77.8334 82.6757 77.8334 82.5945 77.9145C81.7833 78.4013 80.972 78.6447 80.4042 78.7258C79.8363 78.8069 79.4307 78.7258 79.4307 78.7258C79.4307 78.5635 80.8909 78.5635 82.4323 77.59C82.5134 77.5089 82.5945 77.5089 82.6757 77.4278L82.8379 77.3467L82.919 77.4278C83.568 77.9145 84.2981 78.2391 84.7038 78.5635C85.1094 78.888 85.3528 79.1314 85.3528 79.1314Z" fill="#EB996E"/>
<path d="M83.568 81.9706C83.568 81.9706 83.2435 82.1329 82.6756 81.8895C82.1077 81.6461 81.5398 81.0783 80.7286 80.7538H80.8908C80.5663 80.9971 80.2418 81.1594 79.8362 81.4028C78.7005 81.9706 77.5647 82.1329 76.8346 82.1329C76.0234 82.1329 75.5366 82.0518 75.5366 81.9706C75.5366 81.8084 77.5647 81.9706 79.674 80.9971C80.0796 80.8349 80.4041 80.5915 80.7286 80.4293L80.8097 80.3481L80.8908 80.4293C81.7832 80.8349 82.27 81.4839 82.7567 81.7273C83.2435 81.9706 83.568 81.9706 83.568 81.9706Z" fill="#EB996E"/>
<path d="M88.6791 83.7552C88.6791 83.8363 88.2735 83.6741 87.6245 83.6741C86.9755 83.6741 86.0831 83.8363 85.2718 84.4042C84.7851 84.7287 84.3795 85.1343 84.1361 85.54L84.055 85.6211H83.9738C82.8381 85.8645 82.0269 85.9456 82.0269 85.8645C82.0269 85.7833 82.757 85.54 83.8927 85.2966L83.8116 85.3777C84.055 84.891 84.4606 84.4042 85.0285 84.0797C85.9208 83.5118 86.8943 83.3496 87.6245 83.4307C88.2735 83.5118 88.6791 83.7552 88.6791 83.7552Z" fill="#EB996E"/>
<path d="M94.1954 86.1079C94.1954 86.1079 94.1143 86.1891 94.0332 86.1891C93.8709 86.2702 93.7087 86.3513 93.5464 86.5136C93.0597 86.7569 92.4107 87.1626 91.5995 87.5682C91.1938 87.8116 90.7071 88.1361 90.1392 88.2172C89.5713 88.3794 88.9223 88.4605 88.1922 88.5417C86.8131 88.7039 85.2717 88.7039 83.487 88.7039C82.838 88.6228 82.1079 88.5417 81.3777 88.4606C80.6476 88.3794 79.9175 88.2983 79.0251 88.0549H78.944V87.9738C78.8629 87.2437 78.7006 86.5136 78.5384 85.7023V85.4589H78.7818C79.9175 85.5401 81.0532 85.5401 82.2701 85.6212L82.0267 85.7834C82.0267 85.2967 82.1079 84.7288 82.1079 84.1609L82.2701 84.4043C81.4589 84.1609 80.4854 83.9176 79.593 83.6742H79.7553C78.4573 84.1609 77.0781 84.2421 75.699 84.3232C74.9689 84.3232 74.3199 84.3232 73.5898 84.2421C72.8597 84.0798 72.1295 83.7553 71.6428 83.1063C71.5617 82.8629 71.4805 82.7007 71.3994 82.3762V82.214H71.5617C72.3729 82.1328 73.2653 82.0517 74.0765 81.9706C74.3199 81.9706 74.4822 81.8894 74.6444 81.8894H74.8066C74.8066 81.8894 74.8066 81.8894 74.7255 81.8894C74.6444 81.9706 74.6444 82.0517 74.6444 82.0517C74.6444 82.1328 74.8066 82.214 74.7255 82.214C74.6444 82.214 74.6444 82.1328 74.5633 82.1328C74.4821 82.0517 74.401 81.8895 74.3199 81.8083C74.0765 81.4027 73.9954 81.0782 73.8332 80.6726L73.752 80.5103L73.9954 80.4292C75.9424 79.7802 77.8083 79.2123 79.593 78.5633L79.7553 78.969C79.5119 79.0501 79.2685 79.1312 79.0251 79.0501C78.7818 79.0501 78.5384 78.8878 78.3761 78.7256C78.0516 78.32 77.9705 77.9143 77.8894 77.5087V77.3465L78.0516 77.2653C79.9986 76.5352 81.7834 75.8862 83.4059 75.3184H83.487H83.5681C85.2717 76.1296 86.8942 76.9408 88.2733 77.5898C89.0035 77.7521 89.6525 77.9955 90.2203 78.1577C90.7882 78.4011 91.4372 78.5633 91.924 78.8067C92.9786 79.2123 93.8709 79.5368 94.6822 79.7802C95.4123 80.0236 95.9802 80.267 96.3858 80.4292C96.7914 80.5915 96.9537 80.6726 96.9537 80.6726C96.9537 80.6726 96.7103 80.5915 96.3047 80.5103C95.8991 80.3481 95.3312 80.1858 94.6011 79.9425C93.8709 79.6991 92.8974 79.3746 91.8428 79.0501C91.275 78.8878 90.7071 78.6445 90.1392 78.4822C89.4902 78.32 88.8412 78.1577 88.1922 77.9143C86.732 77.2653 85.1906 76.5352 83.487 75.724H83.6492C81.9456 76.373 80.1609 77.022 78.295 77.7521L78.4573 77.5898C78.4573 77.9143 78.6195 78.32 78.7818 78.5633C79.0251 78.8067 79.3496 78.8878 79.6741 78.7256L79.8364 79.1312C78.0516 79.6991 76.1858 80.3481 74.2388 80.9971L74.401 80.7537C74.5633 81.1593 74.6444 81.4838 74.8878 81.8083C74.9689 81.8895 74.9689 81.9706 75.05 81.9706L74.9689 82.0517C75.05 81.8083 74.9689 81.9706 75.05 81.9706C75.05 81.9706 75.05 81.9706 75.1311 81.9706L75.2123 82.0517C75.2123 82.1328 75.2123 82.214 75.1311 82.214C75.05 82.2951 75.05 82.2139 75.05 82.2951H74.9689C74.8878 82.2951 74.8878 82.2951 74.8066 82.2951C74.5633 82.2951 74.401 82.3762 74.1576 82.3762C73.3464 82.4573 72.5352 82.5385 71.6428 82.6196L71.805 82.3762C71.805 82.5385 71.8862 82.7007 71.9673 82.8629C72.2918 83.4308 72.9408 83.6742 73.5898 83.8364C74.2388 83.9987 74.9689 83.9987 75.6179 83.9176C76.997 83.8364 78.3761 83.7553 79.5119 83.3497H79.593H79.6741C80.6476 83.5931 81.54 83.8364 82.3512 84.0798L82.5135 84.1609V84.3232C82.5135 84.8911 82.4324 85.4589 82.4324 85.9457V86.1079H82.2701C81.0532 86.0268 79.9175 86.0268 78.7818 85.9457L78.944 85.7023C79.1063 86.5136 79.1874 87.2437 79.2685 87.9738L79.1874 87.8116C79.8364 88.0549 80.6476 88.0549 81.3777 88.2172C82.1079 88.2983 82.838 88.3794 83.487 88.4606C85.1906 88.4606 86.8131 88.4606 88.1922 88.2983C88.8412 88.2172 89.4902 88.1361 90.0581 88.0549C90.626 87.9738 91.1127 87.6493 91.5183 87.4059C92.3296 87.0003 93.0597 86.6758 93.5464 86.4324C93.7898 86.3513 93.9521 86.2702 94.0332 86.1891C94.1143 86.1891 94.1954 86.1079 94.1954 86.1079Z" fill="#EB996E"/>
<path d="M87.4621 80.0238C87.5432 80.1049 86.732 81.1595 85.3528 82.133C83.9737 83.1065 82.6757 83.5122 82.6757 83.431C82.5946 83.3499 83.8115 82.782 85.1095 81.8085C86.4075 80.9162 87.2998 79.9427 87.4621 80.0238Z" fill="#EB996E"/>
<path d="M126.97 107.281L111.231 105.983L92.7349 113.041L88.6787 115.556L94.4386 135.351C94.4386 135.351 123.481 118.233 124.698 116.773C128.511 112.149 126.97 107.281 126.97 107.281Z" fill="#FF725E"/>
<path d="M43.0867 121.803L37.6514 125.129L50.1446 174.209L47.8731 202.522C51.1181 205.361 59.2305 207.714 74.6442 206.903C90.0579 206.01 100.361 199.358 100.361 199.358L98.9005 170.234L95.4121 137.379L91.437 114.907L79.5928 115.8L74.9687 113.041L72.8595 114.096L70.1824 121.478L63.2868 116.449L55.1743 112.555L52.1727 118.071L43.0867 121.803Z" fill="#FF725E"/>
<path d="M91.437 120.586C91.437 120.586 91.5993 120.992 91.8426 121.641C92.086 122.371 92.4105 123.425 92.8161 124.723C93.5463 127.319 94.5197 130.97 95.2499 135.026C95.98 139.082 96.3856 142.814 96.5479 145.491C96.629 146.87 96.7101 147.925 96.7101 148.655C96.7101 149.385 96.7101 149.791 96.7101 149.791C96.7101 149.791 96.629 149.385 96.5479 148.655C96.4667 147.844 96.3856 146.789 96.3045 145.491C96.0611 142.814 95.6555 139.082 94.9254 135.107C94.1953 131.051 93.3029 127.482 92.6539 124.886C92.3294 123.669 92.0049 122.614 91.8426 121.803C91.5181 120.992 91.437 120.586 91.437 120.586Z" fill="#263238"/>
<path d="M67.9919 120.991C67.9919 120.991 67.5863 120.91 66.8562 120.586C66.2072 120.261 65.2337 119.612 64.4225 118.477L64.747 118.395C64.5847 120.342 64.1791 122.857 63.2867 125.453L63.2056 125.697L62.9622 125.534C62.8 125.372 62.5566 125.291 62.3943 125.129C59.6361 123.182 57.1212 121.478 55.2554 120.18C54.4441 119.531 53.714 119.044 53.1461 118.639C52.6594 118.233 52.416 118.071 52.416 117.99C52.416 117.99 52.7405 118.152 53.2273 118.477C53.7951 118.882 54.5253 119.369 55.4176 119.937C57.2835 121.154 59.7984 122.857 62.6377 124.804C62.8 124.967 63.0433 125.048 63.2056 125.21L62.8811 125.291C63.7735 122.695 64.2602 120.261 64.4225 118.314L64.5036 117.909L64.747 118.233C65.4771 119.288 66.3695 119.937 67.0185 120.342C67.5863 120.829 67.9919 120.91 67.9919 120.991Z" fill="#263238"/>
<path d="M79.1061 116.611C79.1872 116.692 78.0515 117.909 76.429 119.613L76.2667 119.775L76.1045 119.613C75.6177 119.045 74.9687 118.396 74.3197 117.828C73.9952 117.503 73.6707 117.26 73.3462 117.017C73.184 116.854 73.0217 116.773 72.8595 116.692C72.7784 116.611 72.7784 116.611 72.7784 116.611C72.7784 116.611 72.7784 116.611 72.6972 116.692C72.4539 117.341 72.2105 117.99 71.9671 118.639C71.5615 119.775 71.237 120.424 71.1559 120.424C71.0747 120.424 71.3181 119.694 71.6426 118.558C71.886 117.909 72.0482 117.26 72.2916 116.611C72.2916 116.53 72.3727 116.368 72.535 116.287C72.7784 116.205 72.9406 116.287 73.0217 116.368C73.184 116.53 73.3462 116.611 73.5085 116.773C73.833 117.017 74.2386 117.341 74.5631 117.585C75.2121 118.152 75.8611 118.801 76.3478 119.45H76.0233C77.8081 117.666 79.025 116.611 79.1061 116.611Z" fill="#263238"/>
<path d="M75.8612 204.794C82.5135 203.496 89.6524 204.307 96.2235 207.308C104.336 211.121 110.501 217.855 113.584 226.292C116.667 234.729 116.261 243.814 112.448 252.008C104.66 268.801 84.6227 276.102 67.8299 268.314C59.7174 264.501 53.5519 257.768 50.4692 249.331C47.3865 240.894 47.7921 231.808 51.605 223.614C56.3102 213.474 65.5584 206.741 75.8612 204.794ZM87.8677 268.639C97.4404 266.854 106.121 260.607 110.501 251.035C114.071 243.409 114.395 234.891 111.556 227.022C108.717 219.153 102.957 212.906 95.3312 209.336C87.7054 205.767 79.1873 205.443 71.3182 208.282C63.4492 211.121 57.2026 216.881 53.6331 224.507C50.0636 232.133 49.7391 240.651 52.5784 248.52C55.4178 256.389 61.1777 262.635 68.8034 266.205C74.9689 269.125 81.6211 269.855 87.8677 268.639Z" fill="#455A64"/>
<path d="M82.0267 273.1C76.997 273.1 71.9672 271.965 67.1809 269.774C58.6628 265.799 52.1728 258.741 48.9278 249.899C45.6828 241.056 46.0885 231.483 50.0636 222.965C54.8499 212.744 64.3415 205.361 75.5367 203.252C82.8379 201.873 90.2203 202.765 96.8725 205.929C105.391 209.904 111.881 216.962 115.126 225.805C118.371 234.647 117.965 244.22 113.99 252.738C110.015 261.256 102.957 267.746 94.1143 270.991C90.2203 272.37 86.0829 273.1 82.0267 273.1ZM82.1078 208.119C78.7006 208.119 75.2122 208.687 71.8861 209.904C64.4226 212.662 58.5005 218.098 55.0933 225.318C51.7672 232.538 51.3616 240.569 54.1198 248.033C56.878 255.496 62.3134 261.418 69.5335 264.826C75.2122 267.422 81.4588 268.233 87.5432 267.097C96.9536 265.312 104.985 259.066 109.041 250.467C112.367 243.246 112.773 235.215 110.015 227.752C107.256 220.288 101.821 214.366 94.601 210.959C90.6259 209.012 86.3263 208.119 82.1078 208.119Z" fill="#455A64"/>
<path d="M0.334128 205.037L0.658626 204.307C1.30762 202.765 2.68674 201.792 3.74136 202.279L52.8218 222.235C53.0652 222.316 53.1463 222.722 52.984 223.046L50.8748 228.157C50.7125 228.482 50.388 228.725 50.1447 228.644L1.06425 208.687C0.00962913 208.201 -0.314869 206.578 0.334128 205.037Z" fill="#455A64"/>
<path d="M46.1696 148.412L40.2475 167.963L43.2491 207.795L34.5688 208.931C34.5688 208.931 24.5904 175.021 25.5639 168.936C26.5374 162.852 30.5937 144.923 30.5937 144.923L46.1696 148.412Z" fill="#FFBE9D"/>
<path d="M43.2493 207.552L47.3055 214.447L49.8204 220.937L46.0075 219.396C46.0075 219.396 44.385 227.265 43.736 227.427C43.0871 227.671 41.2212 227.022 41.4646 225.48C41.4646 225.48 40.5722 226.373 39.4364 226.129C38.3007 225.886 37.9762 225.156 38.1385 223.696C38.1385 223.696 36.7593 224.75 36.0292 224.101C35.218 223.452 35.2991 222.235 35.2991 222.235C35.2991 222.235 33.5143 222.398 33.3521 221.505C33.1087 220.613 33.0276 218.017 33.271 217.043C33.5143 216.07 34.3256 212.014 34.3256 212.014L34.7312 208.769L43.2493 207.552Z" fill="#FFBE9D"/>
<path d="M42.2758 221.1C42.1947 221.1 41.8702 222.073 41.6268 223.29C41.3834 224.507 41.3023 225.561 41.3834 225.561C41.4646 225.561 41.7891 224.588 42.0324 223.371C42.2758 222.073 42.3569 221.1 42.2758 221.1Z" fill="#EB996E"/>
<path d="M38.7063 220.126C38.6252 220.126 38.3818 220.937 38.1384 221.911C37.9762 222.884 37.895 223.695 37.9762 223.777C38.0573 223.777 38.3007 222.965 38.544 221.992C38.7063 221.018 38.7874 220.207 38.7063 220.126Z" fill="#EB996E"/>
<path d="M35.7047 219.315C35.6236 219.315 35.5424 220.045 35.3802 220.856C35.2179 221.668 35.0557 222.317 35.1368 222.398C35.2179 222.398 35.6236 221.83 35.7858 220.937C35.9481 220.045 35.8669 219.315 35.7047 219.315Z" fill="#EB996E"/>
<path d="M46.2511 217.206C46.17 217.206 45.9266 218.179 45.6021 219.396C45.2776 220.613 45.1153 221.586 45.1965 221.667C45.2776 221.667 45.6832 220.775 45.9266 219.558C46.2511 218.26 46.3322 217.206 46.2511 217.206Z" fill="#EB996E"/>
<path d="M25.0773 182.078C25.0773 181.429 22.3191 172.1 23.2114 167.314C24.0227 162.527 33.9199 129.996 35.299 127.644C36.597 125.291 39.5175 124.074 39.5175 124.074C39.5175 124.074 45.4396 126.832 47.3866 133.971C49.4147 141.11 49.4147 150.034 49.4147 150.034L41.4645 169.747L42.438 180.943L25.0773 182.078Z" fill="#FF725E"/>
<path d="M48.7657 149.385C48.6846 149.385 48.8468 147.925 48.7657 145.572C48.7657 144.436 48.6034 142.976 48.3601 141.516C48.1167 139.975 47.7111 138.352 47.2243 136.648C46.6565 134.945 46.0075 133.403 45.3585 132.024C44.6283 130.645 43.9793 129.428 43.3303 128.455C42.0323 126.508 41.0589 125.372 41.14 125.372C41.14 125.372 41.3834 125.615 41.8701 126.102C42.2757 126.589 42.9247 127.319 43.5737 128.293C44.2227 129.266 44.9528 130.483 45.683 131.862C46.4131 133.241 47.0621 134.864 47.6299 136.567C48.1978 138.271 48.5223 139.975 48.7657 141.516C49.0091 143.057 49.0902 144.436 49.0902 145.653C49.0902 146.87 49.0091 147.762 48.9279 148.411C48.8468 149.06 48.8468 149.385 48.7657 149.385Z" fill="#263238"/>
<path d="M48.2786 153.522C48.3597 153.522 48.0352 154.496 47.4674 155.956C46.8995 157.416 46.0071 159.526 45.0336 161.716C44.0601 163.906 43.1678 165.853 42.4376 167.395C41.7886 168.855 41.383 169.747 41.3019 169.747C41.2208 169.747 41.5453 168.774 42.1131 167.314C42.681 165.853 43.5734 163.744 44.5469 161.554C45.5204 159.363 46.4127 157.416 47.1429 155.875C47.7919 154.415 48.1975 153.522 48.2786 153.522Z" fill="#263238"/>
<path d="M41.789 170.559C41.7079 170.64 39.5175 169.098 36.3537 168.206C33.1898 167.232 30.5127 167.314 30.5127 167.151C30.5127 167.07 31.1617 166.989 32.2974 167.07C33.3521 167.07 34.8934 167.314 36.5159 167.8C38.1384 168.287 39.5175 168.936 40.4099 169.504C41.3023 170.072 41.8701 170.477 41.789 170.559Z" fill="#263238"/>
<path d="M93.6277 226.454C93.7088 226.535 87.2999 232.132 79.3497 238.947C71.3995 245.761 64.8284 251.197 64.8284 251.115C64.7473 251.034 71.1561 245.437 79.1063 238.622C87.0566 231.808 93.5465 226.372 93.6277 226.454Z" fill="white"/>
<path d="M101.821 226.454C101.902 226.535 96.5481 231.321 89.8148 237.081C83.0814 242.841 77.5649 247.465 77.4838 247.384C77.4027 247.303 82.7569 242.516 89.4903 236.757C96.2236 230.997 101.74 226.373 101.821 226.454Z" fill="white"/>
<path d="M113.99 237.811C113.99 237.811 113.99 237.649 113.909 237.324C113.909 237 113.828 236.432 113.828 235.783C113.828 235.458 113.746 235.053 113.746 234.647C113.665 234.241 113.584 233.836 113.584 233.349C113.503 232.862 113.422 232.376 113.341 231.808C113.26 231.24 113.097 230.672 112.935 230.104C112.367 227.67 111.232 224.75 109.366 221.667C107.5 218.584 104.904 215.421 101.253 212.662C100.766 212.338 100.361 212.013 99.8741 211.608C99.3873 211.283 98.9006 211.04 98.4138 210.715C97.9271 210.391 97.4403 210.066 96.8725 209.823C96.3046 209.58 95.8179 209.336 95.25 209.012C95.0066 208.849 94.6821 208.768 94.4387 208.606C94.1142 208.525 93.8709 208.363 93.5464 208.282C92.9785 208.038 92.3295 207.876 91.7616 207.633C91.1937 207.47 90.5448 207.308 89.8958 207.146C89.2468 206.984 88.5978 206.74 87.9488 206.74C86.6508 206.578 85.3528 206.253 83.9737 206.253C83.3247 206.253 82.5945 206.172 81.9455 206.172C81.2154 206.172 80.5664 206.253 79.8363 206.253C79.5118 206.253 79.1062 206.253 78.7817 206.335L77.7271 206.497C76.9969 206.578 76.2668 206.659 75.6178 206.821C74.2387 207.227 72.7785 207.47 71.3993 208.038C69.9391 208.525 68.6411 209.174 67.262 209.823C66.613 210.147 65.964 210.634 65.315 211.04C64.9905 211.283 64.666 211.445 64.3415 211.689L63.4491 212.419C62.1511 213.311 61.0154 214.447 59.8796 215.502C58.825 216.719 57.6893 217.854 56.7969 219.152L56.0668 220.126L55.4178 221.18L54.7688 222.235C54.5254 222.56 54.3632 222.965 54.2009 223.29C53.8764 224.02 53.4708 224.75 53.1463 225.561C52.8218 226.372 52.5784 227.103 52.2539 227.914C51.1993 231.078 50.6314 234.485 50.6314 237.892C50.7125 241.299 51.1993 244.707 52.2539 247.87C52.5784 248.682 52.8218 249.412 53.1463 250.223C53.4708 250.953 53.8764 251.683 54.2009 252.495L54.4443 253.062L54.7688 253.549L55.4178 254.604L56.0668 255.658L56.7969 256.632C57.6893 258.011 58.825 259.147 59.8796 260.283C61.0965 261.337 62.1511 262.473 63.4491 263.365L64.4226 264.095C64.7471 264.339 65.0716 264.501 65.3961 264.744C66.0451 265.15 66.6941 265.556 67.3431 265.961C68.7222 266.61 70.0202 267.34 71.4805 267.746C72.8596 268.314 74.3198 268.638 75.6989 268.963C76.4291 269.125 77.1592 269.206 77.8082 269.287L78.8628 269.45C79.1873 269.531 79.5929 269.531 79.9174 269.531C80.6475 269.531 81.2965 269.612 82.0267 269.612C82.7568 269.612 83.4058 269.531 84.0548 269.531C85.4339 269.531 86.7319 269.287 88.0299 269.044C88.6789 268.963 89.3279 268.719 89.9769 268.638C90.6259 268.476 91.2749 268.314 91.8427 268.152C92.4106 267.908 93.0596 267.746 93.6275 267.503C93.952 267.421 94.1954 267.259 94.5199 267.178C94.7632 267.016 95.0877 266.935 95.3311 266.772C95.899 266.529 96.4669 266.205 96.9536 265.961C97.5215 265.718 98.0082 265.393 98.495 265.069C98.9817 264.744 99.4685 264.501 99.9552 264.176C100.442 263.852 100.848 263.528 101.334 263.122C104.904 260.364 107.581 257.2 109.447 254.117C111.232 251.034 112.448 248.114 113.016 245.68C113.179 245.031 113.341 244.463 113.422 243.976C113.503 243.409 113.584 242.922 113.665 242.435C113.746 241.948 113.828 241.543 113.828 241.137C113.828 240.731 113.909 240.326 113.909 240.001C113.99 239.352 113.99 238.866 113.99 238.46C113.909 237.973 113.99 237.811 113.99 237.811C113.99 237.811 113.99 237.973 113.99 238.298C113.99 238.622 113.99 239.19 113.909 239.839C113.909 240.164 113.909 240.569 113.828 240.975C113.828 241.38 113.746 241.867 113.665 242.354C113.584 242.841 113.503 243.327 113.422 243.895C113.341 244.463 113.179 245.031 113.016 245.68C112.448 248.195 111.313 251.115 109.528 254.198C107.662 257.281 105.066 260.526 101.415 263.284C100.929 263.609 100.523 263.933 100.036 264.339C99.5496 264.663 99.0628 264.988 98.495 265.231C98.0082 265.556 97.5215 265.88 96.9536 266.123C96.3857 266.367 95.8179 266.691 95.3311 266.935C95.0877 267.097 94.7632 267.178 94.5199 267.34C94.1954 267.421 93.952 267.584 93.6275 267.665C93.0596 267.908 92.4106 268.07 91.8427 268.314C91.1937 268.557 90.6259 268.638 89.9769 268.801C89.3279 268.963 88.6789 269.206 88.0299 269.206C86.7319 269.368 85.3528 269.693 83.9737 269.693C83.2435 269.693 82.5945 269.774 81.8644 269.774C81.1343 269.774 80.4853 269.693 79.7552 269.693C79.4307 269.693 79.0251 269.693 78.7006 269.612L77.6459 269.45C76.9158 269.368 76.1857 269.287 75.4556 269.125C74.0764 268.719 72.5351 268.476 71.156 267.908C69.6957 267.421 68.3977 266.772 66.9375 266.042C66.2885 265.637 65.6395 265.231 64.9094 264.826C64.5849 264.582 64.2604 264.42 63.9359 264.176L62.9624 263.446C61.6644 262.554 60.5286 261.418 59.3118 260.364C58.2571 259.147 57.1214 258.011 56.1479 256.632L55.4178 255.658L54.7688 254.604L54.1198 253.549L53.7953 252.981L53.5519 252.413C53.2274 251.683 52.8218 250.872 52.4973 250.142C52.1728 249.331 51.9294 248.519 51.6049 247.789C50.5503 244.544 49.9824 241.137 49.9824 237.649C50.0635 234.16 50.6314 230.753 51.6049 227.508C51.9294 226.697 52.1728 225.886 52.4973 225.156C52.8218 224.425 53.2274 223.614 53.5519 222.884C53.7142 222.478 53.9575 222.154 54.1198 221.829L54.7688 220.775L55.4178 219.72L56.1479 218.747C57.0403 217.368 58.176 216.232 59.3118 215.015C60.5286 213.96 61.6644 212.825 62.9624 211.932L63.9359 211.202C64.2604 210.959 64.5849 210.796 64.9094 210.553C65.5584 210.147 66.2074 209.742 66.9375 209.336C68.3166 208.687 69.6957 207.957 71.156 207.47C72.5351 206.902 73.9953 206.578 75.4556 206.253C76.1857 206.091 76.9158 206.01 77.6459 205.929L78.7006 205.767C79.0251 205.686 79.4307 205.686 79.7552 205.686C80.4853 205.686 81.2154 205.604 81.8644 205.604C82.5945 205.604 83.2435 205.686 83.9737 205.686C85.3528 205.686 86.7319 206.01 88.0299 206.172C88.6789 206.253 89.3279 206.497 89.9769 206.578C90.6259 206.74 91.2749 206.902 91.8427 207.065C92.4106 207.308 93.0596 207.47 93.6275 207.714C93.952 207.795 94.1954 207.957 94.5199 208.038C94.7632 208.2 95.0877 208.282 95.3311 208.444C95.899 208.687 96.4669 209.012 96.9536 209.255C97.5215 209.498 98.0082 209.904 98.495 210.147C98.9817 210.472 99.5496 210.796 100.036 211.04C100.523 211.364 100.929 211.77 101.415 212.094C105.066 214.853 107.662 218.098 109.528 221.18C111.313 224.263 112.448 227.265 113.016 229.699C113.179 230.348 113.341 230.915 113.422 231.483C113.503 232.051 113.584 232.538 113.665 233.025C113.746 233.511 113.828 233.917 113.828 234.404C113.828 234.809 113.828 235.215 113.909 235.539C113.909 236.188 113.99 236.675 113.99 237.081C113.99 237.649 113.99 237.811 113.99 237.811Z" fill="#263238"/>
<path d="M102.146 254.766C102.146 254.766 102.389 254.361 102.957 253.712C103.444 253.063 104.174 252.008 104.985 250.71C106.526 248.033 108.23 244.058 108.717 239.353C109.203 234.647 108.392 230.348 107.419 227.508C106.932 226.048 106.445 224.912 106.039 224.101C105.634 223.29 105.472 222.884 105.472 222.884C105.472 222.884 105.553 222.965 105.634 223.209C105.715 223.371 105.958 223.696 106.121 224.101C106.526 224.831 107.094 225.967 107.581 227.508C108.635 230.429 109.528 234.728 109.041 239.515C108.554 244.301 106.77 248.357 105.147 250.953C104.336 252.251 103.525 253.306 102.957 253.955C102.713 254.28 102.47 254.523 102.308 254.685C102.308 254.685 102.227 254.766 102.146 254.766Z" fill="#263238"/>
<path d="M100.523 257.687C100.604 257.768 100.361 258.011 99.9551 258.254C99.5495 258.498 99.225 258.579 99.225 258.417C99.1439 258.336 99.3873 258.092 99.7929 257.849C100.117 257.687 100.442 257.605 100.523 257.687Z" fill="#263238"/>
<path d="M58.6629 251.521C58.6629 251.521 58.5818 251.359 58.5007 251.115C58.4195 250.872 58.1762 250.466 58.0139 249.979C57.6083 249.006 57.1215 247.546 56.7159 245.68C55.9047 241.948 55.5802 236.513 57.0404 230.834C58.5818 225.155 61.5834 220.612 64.1794 217.854C65.4774 216.475 66.6131 215.42 67.5055 214.771C67.9111 214.447 68.2356 214.203 68.479 214.041C68.7224 213.879 68.8035 213.798 68.8035 213.798C68.8035 213.798 68.3979 214.203 67.5866 214.852C66.7754 215.583 65.6396 216.637 64.4228 218.016C61.9079 220.856 58.9874 225.318 57.446 230.915C55.9047 236.513 56.2292 241.867 56.9593 245.599C57.3649 247.465 57.7706 248.925 58.095 249.898C58.5007 250.953 58.744 251.44 58.6629 251.521Z" fill="white"/>
<path d="M77.4838 211.689C77.4838 211.77 76.6725 211.932 75.6179 212.095C74.5633 212.176 73.752 212.176 73.6709 212.014C73.6709 211.932 74.4821 211.77 75.5368 211.608C76.6725 211.608 77.4838 211.608 77.4838 211.689Z" fill="white"/>
<path d="M199.54 126.959L154.969 126.927C151.919 126.889 149.348 124.394 149.385 121.344L149.469 59.7323C149.506 56.6825 152.002 54.1112 155.051 54.1487L183.258 54.199L205.06 76.8403L204.969 121.542C205.121 124.52 202.684 126.96 199.54 126.959Z" fill="#EBEBEB"/>
<path d="M183.448 54.1274L183.41 71.4882C183.395 74.3125 185.705 76.6902 188.624 76.6688L205.344 76.7328L183.448 54.1274Z" fill="#E0E0E0"/>
<path d="M179.657 70.7407C179.634 70.9662 175.055 71.1829 169.406 71.1539C163.758 71.1249 159.129 70.9264 159.057 70.7368C159.08 70.5112 163.66 70.2946 169.308 70.3236C175.052 70.3167 179.68 70.5151 179.657 70.7407Z" fill="white"/>
<path d="M192.921 80.5707C192.898 80.7963 185.363 80.9395 175.929 80.9348C166.59 80.8941 158.947 80.7529 158.97 80.5273C158.993 80.3018 166.528 80.1585 175.962 80.1633C185.301 80.204 192.944 80.3452 192.921 80.5707Z" fill="white"/>
<path d="M195.914 88.7603C195.891 88.9859 187.621 89.1909 177.415 89.153C167.21 89.1152 158.891 88.905 158.914 88.6795C158.937 88.4539 167.207 88.2489 177.413 88.2868C187.749 88.3835 195.937 88.5348 195.914 88.7603Z" fill="white"/>
<path d="M195.94 96.5567C195.917 96.7822 187.647 96.9873 177.441 96.9494C167.236 96.9115 158.917 96.7014 158.94 96.4758C158.963 96.2503 167.233 96.0453 177.438 96.0832C187.644 96.121 195.963 96.3312 195.94 96.5567Z" fill="white"/>
<path d="M195.929 104.258C195.906 104.484 187.636 104.689 177.43 104.651C167.225 104.613 158.906 104.403 158.929 104.178C158.952 103.952 167.222 103.747 177.428 103.785C187.633 103.823 195.952 104.033 195.929 104.258Z" fill="white"/>
<path d="M195.919 111.96C195.896 112.185 187.626 112.39 177.42 112.352C167.215 112.314 158.896 112.104 158.919 111.879C158.942 111.653 167.212 111.448 177.417 111.486C187.623 111.524 195.942 111.734 195.919 111.96Z" fill="white"/>
<path d="M241.712 66.3912C258.109 62.5193 268.263 46.0878 264.391 29.6903C260.519 13.2928 244.088 3.13889 227.69 7.01079C211.293 10.8827 201.139 27.3142 205.011 43.7117C208.883 60.1091 225.314 70.2631 241.712 66.3912Z" fill="#2AAEE5"/>
<path d="M229.28 60.4507C229.28 60.4507 232.007 70.1412 220.967 79.1355C220.967 79.1355 237.969 77.4236 238.883 61.2631L229.28 60.4507Z" fill="#2AAEE5"/>
<path d="M237.723 39.5462H231.166L229.526 23.8208H239.362L237.723 39.5462ZM234.444 49.6719C231.601 49.6719 229.642 47.699 229.642 45.3054C229.642 42.8682 231.615 41.0114 234.444 41.0114C237.287 41.0114 239.246 42.8682 239.246 45.3054C239.246 47.699 237.287 49.6719 234.444 49.6719Z" fill="white"/>
</svg>
