<svg id="_3024050" data-name="3024050" xmlns="http://www.w3.org/2000/svg" width="687.903" height="443.02" viewBox="0 0 687.903 443.02">
  <g id="Background_Complete">
    <g id="Group_1548" data-name="Group 1548">
      <g id="Group_1532" data-name="Group 1532">
        <rect id="Rectangle_676" data-name="Rectangle 676" width="135" height="198.8" transform="translate(107.635 197.317) rotate(-33.779)" fill="#f5f5f5"/>
      </g>
      <g id="Group_1535" data-name="Group 1535">
        <g id="Group_1533" data-name="Group 1533">
          <path id="Path_7071" data-name="Path 7071" d="M272.4,279.7l-1.3,7.8-55.7-8,1.2-7.9Z" fill="#e0e0e0"/>
        </g>
        <g id="Group_1534" data-name="Group 1534">
          <path id="Path_7072" data-name="Path 7072" d="M244.3,251.5l8,1.2-8.8,54.9-8-1.1Z" fill="#e0e0e0"/>
        </g>
      </g>
      <g id="Group_1537" data-name="Group 1537">
        <g id="Group_1536" data-name="Group 1536">
          <path id="Path_7073" data-name="Path 7073" fill="#fff"/>
        </g>
      </g>
      <g id="Group_1539" data-name="Group 1539">
        <g id="Group_1538" data-name="Group 1538">
          <path id="Path_7074" data-name="Path 7074" d="M193,181.7c.1.1-11.2,7.8-25.1,17.1-14,9.3-25.3,16.8-25.4,16.7s11.2-7.8,25.1-17.1S192.9,181.6,193,181.7Z" fill="#e0e0e0"/>
        </g>
      </g>
      <g id="Group_1541" data-name="Group 1541">
        <g id="Group_1540" data-name="Group 1540">
          <path id="Path_7075" data-name="Path 7075" d="M234.2,171.4c.1.1-18.6,12.8-41.8,28.2-23.1,15.5-42,27.9-42.1,27.8s18.6-12.8,41.8-28.2C215.3,183.7,234.1,171.3,234.2,171.4Z" fill="#e0e0e0"/>
        </g>
      </g>
      <g id="Group_1543" data-name="Group 1543">
        <g id="Group_1542" data-name="Group 1542">
          <path id="Path_7076" data-name="Path 7076" d="M242.5,183.8c.1.1-18.6,12.8-41.8,28.2-23.1,15.5-42,27.9-42.1,27.8s18.6-12.8,41.8-28.2C223.6,196.1,242.4,183.6,242.5,183.8Z" fill="#e0e0e0"/>
        </g>
      </g>
      <g id="Group_1545" data-name="Group 1545">
        <g id="Group_1544" data-name="Group 1544">
          <path id="Path_7077" data-name="Path 7077" d="M250.8,196.1c.1.1-18.6,12.8-41.8,28.2-23.1,15.5-42,27.9-42.1,27.8s18.6-12.8,41.8-28.2S250.7,196,250.8,196.1Z" fill="#e0e0e0"/>
        </g>
      </g>
      <g id="Group_1547" data-name="Group 1547">
        <g id="Group_1546" data-name="Group 1546">
          <path id="Path_7078" data-name="Path 7078" d="M259,208.5c.1.1-18.6,12.8-41.8,28.2-23.1,15.5-42,27.9-42.1,27.8s18.6-12.8,41.8-28.2C240.1,220.8,258.9,208.4,259,208.5Z" fill="#e0e0e0"/>
        </g>
      </g>
    </g>
    <g id="Group_1565" data-name="Group 1565">
      <g id="Group_1549" data-name="Group 1549">
        <rect id="Rectangle_677" data-name="Rectangle 677" width="113.4" height="166.9" transform="translate(500.849 295.971) rotate(-33.779)" fill="#f5f5f5"/>
      </g>
      <g id="Group_1552" data-name="Group 1552">
        <g id="Group_1550" data-name="Group 1550">
          <path id="Path_7079" data-name="Path 7079" d="M639.2,365.2l-1.1,6.6L591.3,365l1.1-6.6Z" fill="#e0e0e0"/>
        </g>
        <g id="Group_1551" data-name="Group 1551">
          <path id="Path_7080" data-name="Path 7080" d="M615.6,341.6l6.7.9-7.4,46.2-6.7-1Z" fill="#e0e0e0"/>
        </g>
      </g>
      <g id="Group_1554" data-name="Group 1554">
        <g id="Group_1553" data-name="Group 1553">
          <path id="Path_7081" data-name="Path 7081" fill="#fff"/>
        </g>
      </g>
      <g id="Group_1556" data-name="Group 1556">
        <g id="Group_1555" data-name="Group 1555">
          <path id="Path_7082" data-name="Path 7082" d="M572.5,282.9c.1.1-9.4,6.6-21.1,14.4s-21.3,14.1-21.4,14,9.4-6.6,21.1-14.4S572.4,282.8,572.5,282.9Z" fill="#e0e0e0"/>
        </g>
      </g>
      <g id="Group_1558" data-name="Group 1558">
        <g id="Group_1557" data-name="Group 1557">
          <path id="Path_7083" data-name="Path 7083" d="M607.1,274.2c.1.1-15.6,10.8-35,23.8s-35.3,23.4-35.3,23.3c-.1-.1,15.6-10.8,35.1-23.8C591.2,284.6,607,274.1,607.1,274.2Z" fill="#e0e0e0"/>
        </g>
      </g>
      <g id="Group_1560" data-name="Group 1560">
        <g id="Group_1559" data-name="Group 1559">
          <path id="Path_7084" data-name="Path 7084" d="M614.1,284.6c.1.1-15.6,10.8-35,23.8s-35.3,23.4-35.3,23.3c-.1-.1,15.6-10.8,35.1-23.8C598.2,295,614,284.5,614.1,284.6Z" fill="#e0e0e0"/>
        </g>
      </g>
      <g id="Group_1562" data-name="Group 1562">
        <g id="Group_1561" data-name="Group 1561">
          <path id="Path_7085" data-name="Path 7085" d="M621,295c.1.1-15.6,10.8-35,23.8s-35.3,23.4-35.3,23.3c-.1-.1,15.6-10.8,35.1-23.8C605.1,305.3,620.9,294.9,621,295Z" fill="#e0e0e0"/>
        </g>
      </g>
      <g id="Group_1564" data-name="Group 1564">
        <g id="Group_1563" data-name="Group 1563">
          <path id="Path_7086" data-name="Path 7086" d="M628,305.4c.1.1-15.6,10.8-35,23.8s-35.3,23.4-35.3,23.3c-.1-.1,15.6-10.8,35.1-23.8C612.1,315.7,627.9,305.3,628,305.4Z" fill="#e0e0e0"/>
        </g>
      </g>
    </g>
    <g id="Group_1582" data-name="Group 1582">
      <g id="Group_1566" data-name="Group 1566">
        <rect id="Rectangle_678" data-name="Rectangle 678" width="116.6" height="171.7" transform="translate(343.169 73.348) rotate(28.139)" fill="#f5f5f5"/>
      </g>
      <g id="Group_1569" data-name="Group 1569">
        <g id="Group_1567" data-name="Group 1567">
          <path id="Path_7087" data-name="Path 7087" d="M347.4,232.4l-6.5,2.2-16.6-45.8,6.6-2.2Z" fill="#e0e0e0"/>
        </g>
        <g id="Group_1568" data-name="Group 1568">
          <path id="Path_7088" data-name="Path 7088" d="M357.4,199.5l2.4,6.6-45.5,15.6-2.3-6.6Z" fill="#e0e0e0"/>
        </g>
      </g>
      <g id="Group_1571" data-name="Group 1571">
        <g id="Group_1570" data-name="Group 1570">
          <path id="Path_7089" data-name="Path 7089" fill="#fff"/>
        </g>
      </g>
      <g id="Group_1573" data-name="Group 1573">
        <g id="Group_1572" data-name="Group 1572">
          <path id="Path_7090" data-name="Path 7090" d="M389.7,132c-.1.2-10.5-5.3-23.3-12.1s-23.1-12.5-23-12.7,10.5,5.3,23.3,12.1C379.5,126.2,389.8,131.8,389.7,132Z" fill="#e0e0e0"/>
        </g>
      </g>
      <g id="Group_1575" data-name="Group 1575">
        <g id="Group_1574" data-name="Group 1574">
          <path id="Path_7091" data-name="Path 7091" d="M414.4,159.2c-.1.2-17.3-8.9-38.5-20.3-21.2-11.3-38.3-20.7-38.3-20.8.1-.2,17.3,8.9,38.5,20.3S414.5,159.1,414.4,159.2Z" fill="#e0e0e0"/>
        </g>
      </g>
      <g id="Group_1577" data-name="Group 1577">
        <g id="Group_1576" data-name="Group 1576">
          <path id="Path_7092" data-name="Path 7092" d="M408.3,170.6c-.1.2-17.3-8.9-38.5-20.3-21.2-11.3-38.3-20.7-38.3-20.8.1-.2,17.3,8.9,38.5,20.3C391.3,161.1,408.4,170.4,408.3,170.6Z" fill="#e0e0e0"/>
        </g>
      </g>
      <g id="Group_1579" data-name="Group 1579">
        <g id="Group_1578" data-name="Group 1578">
          <path id="Path_7093" data-name="Path 7093" d="M402.3,181.9c-.1.2-17.3-8.9-38.5-20.3-21.2-11.3-38.3-20.7-38.3-20.8.1-.2,17.3,8.9,38.5,20.3C385.2,172.4,402.4,181.7,402.3,181.9Z" fill="#e0e0e0"/>
        </g>
      </g>
      <g id="Group_1581" data-name="Group 1581">
        <g id="Group_1580" data-name="Group 1580">
          <path id="Path_7094" data-name="Path 7094" d="M396.2,193.2c-.1.2-17.3-8.9-38.5-20.3-21.2-11.3-38.3-20.7-38.3-20.8.1-.2,17.3,8.9,38.5,20.3C379.2,183.8,396.3,193.1,396.2,193.2Z" fill="#e0e0e0"/>
        </g>
      </g>
    </g>
  </g>
  <g id="Background_Simple">
    <path id="Path_7095" data-name="Path 7095" d="M150.7,164.4c-8.5,67.1,25.9,135.9,80.3,176.1S356.9,394,423.9,384.4c47.8-6.8,95.2-25.6,128.9-60.2s51.5-86.6,37.9-132.9c-5.1-17.5-15.2-34.5-31.2-43.2-25.5-14-57-3.7-84.2,6.8s-58.6,20.9-84.2,7c-19.7-10.7-29.7-32.7-44.2-49.8-24.5-29.1-64.3-44.6-102-39.6a111.875,111.875,0,0,0-14,2.8c-40.1,10.8-70.5,43.7-79.2,84.4Z" fill="#ebebeb"/>
  </g>
  <g id="Floor">
    <g id="Group_1587" data-name="Group 1587">
      <g id="Group_1586" data-name="Group 1586">
        <path id="Path_7097" data-name="Path 7097" d="M663.7,439.8c0,.1-129.3.3-288.7.3-159.5,0-288.7-.1-288.7-.3,0-.1,129.2-.3,288.7-.3C534.4,439.6,663.7,439.7,663.7,439.8Z" fill="#263238"/>
      </g>
    </g>
  </g>
  <g id="Character">
    <g id="Group_1753" data-name="Group 1753">
      <g id="Group_1591" data-name="Group 1591">
        <g id="Group_1588" data-name="Group 1588">
          <path id="Path_7098" data-name="Path 7098" d="M570.4,105.5c-2.9.7-4.4,4.1-4.7,7.1s.1,6.2-1.2,8.9c-1.4,3.1-4.8,5.4-4.9,8.8-.1,2.1,1.2,4,1.1,6.1-.1,3.4-3.6,6-3.7,9.4-.1,2.4,1.5,4.8,1.1,7.2-.3,1.9-1.8,3.4-2.4,5.2-1.2,3.6,1.2,7.5,4.4,9.6a14.584,14.584,0,0,0,12.2,1.5,14.784,14.784,0,0,0,9-8.3c1.8-4.3,1.4-9.2,1-13.8-1.2-14.5-2.1-29-2.7-43.6" fill="#263238"/>
        </g>
        <g id="Group_1590" data-name="Group 1590">
          <g id="Group_1589" data-name="Group 1589">
            <path id="Path_7099" data-name="Path 7099" d="M561.8,156.7c-.1-.1.8-.3,1.3-1.6a4.547,4.547,0,0,0,.3-2.4,14.285,14.285,0,0,0-.7-3.2,9.1,9.1,0,0,1-.5-4.1c.3-1.6,1.4-2.8,2.4-4.1a10.963,10.963,0,0,0,1.4-2.1,3.91,3.91,0,0,0,.2-2.4c-.5-1.6-2.1-2.8-2.9-4.7a4.817,4.817,0,0,1-.2-2.9,11.663,11.663,0,0,1,1-2.6,23.687,23.687,0,0,0,2-4.7c.7-3.2.4-6.2.9-8.7a9.366,9.366,0,0,1,2.5-5.3,3.785,3.785,0,0,1,1.3-.9,4.206,4.206,0,0,0,.5-.2,11.1,11.1,0,0,0-1.7,1.3,9.7,9.7,0,0,0-2.3,5.2c-.2,1.2-.2,2.6-.3,4a25.918,25.918,0,0,1-.5,4.7,18.117,18.117,0,0,1-2,4.8c-.8,1.6-1.4,3.4-.8,5.1s2.2,2.9,2.9,4.8a3.6,3.6,0,0,1-.2,2.7,16.445,16.445,0,0,1-1.4,2.2c-1,1.3-2.1,2.5-2.3,3.9a7.292,7.292,0,0,0,.5,3.9,15.054,15.054,0,0,1,.7,3.3,5.95,5.95,0,0,1-.4,2.5,2.906,2.906,0,0,1-1,1.3A3.126,3.126,0,0,0,561.8,156.7Z" fill="#455a64"/>
          </g>
        </g>
      </g>
      <path id="Path_7100" data-name="Path 7100" d="M554,180.4l-9,26-37.6,2-6.3,14,39.3,4a14.938,14.938,0,0,0,19.7-8.7l10.5-29.3Z" fill="#b78876"/>
      <g id="Group_1596" data-name="Group 1596">
        <g id="Group_1594" data-name="Group 1594">
          <g id="Group_1592" data-name="Group 1592">
            <path id="Path_7101" data-name="Path 7101" d="M631.8,425.7s-27.6-87.6-28.2-90.5c-.5-2.6,10-65.6,11.3-81.9l-37.3,1.4v.3l-15.8.9L576.1,435h17.2l-1.7-59.5c10.6,28.4,25.7,57.3,25.7,57.3Z" fill="#b78876"/>
          </g>
          <g id="Group_1593" data-name="Group 1593">
            <path id="Path_7102" data-name="Path 7102" d="M592.2,396.9c0-.5-.2-19.9-.2-19.9-.2,1.2-6.6-16.8-6.4-17.9C585.7,358.5,592.2,396.9,592.2,396.9Z" fill="#a36957"/>
          </g>
        </g>
        <g id="Group_1595" data-name="Group 1595">
          <path id="Path_7103" data-name="Path 7103" d="M584.8,350.5a5,5,0,0,0-.1,1.1v3a15.023,15.023,0,0,0,.2,2,22.3,22.3,0,0,0,.4,2.3,40.649,40.649,0,0,0,1.4,5.2c1.2,3.6,2.6,6.8,3.6,9.1.5,1,.9,2,1.2,2.7l.5,1s-.1-.4-.3-1c-.2-.7-.6-1.6-1-2.8-.9-2.3-2.2-5.5-3.4-9.1a39.443,39.443,0,0,1-1.4-5.1,22.313,22.313,0,0,1-.4-2.3,15.034,15.034,0,0,1-.2-2c-.1-1.2-.2-2.2-.2-2.9C584.9,350.9,584.9,350.5,584.8,350.5Z" fill="#a36957"/>
        </g>
      </g>
      <g id="Group_1628" data-name="Group 1628">
        <g id="Group_1627" data-name="Group 1627">
          <g id="Group_1598" data-name="Group 1598">
            <g id="Group_1597" data-name="Group 1597">
              <path id="Path_7104" data-name="Path 7104" d="M575.7,435.9v-1.6l17.6-.8v6.6l-1.1.1c-4.8.3-24.5,1.1-27.8.1C560.9,439.3,575.7,435.9,575.7,435.9Z" fill="#455a64"/>
            </g>
          </g>
          <g id="Group_1600" data-name="Group 1600">
            <g id="Group_1599" data-name="Group 1599">
              <path id="Path_7105" data-name="Path 7105" d="M593.6,439.8h-.3a3.085,3.085,0,0,0-.9.1c-.9,0-1.9.1-3.2.1-2.7.1-6.4.2-10.5.2s-7.8,0-10.5-.1c-1.3,0-2.3-.1-3.2-.1h0c.9,0,1.9,0,3.2.1,2.7,0,6.4.1,10.5.1s7.8-.1,10.5-.2c1.3,0,2.3-.1,3.2-.1h.9A.774.774,0,0,1,593.6,439.8Z" fill="#263238"/>
            </g>
          </g>
          <g id="Group_1602" data-name="Group 1602">
            <g id="Group_1601" data-name="Group 1601">
              <path id="Path_7106" data-name="Path 7106" d="M570,440.3a6.761,6.761,0,0,0-.6-1.5,4.245,4.245,0,0,0-1.1-1.2c0-.1.8.3,1.3,1.1S570.1,440.4,570,440.3Z" fill="#263238"/>
            </g>
          </g>
          <g id="Group_1604" data-name="Group 1604">
            <g id="Group_1603" data-name="Group 1603">
              <path id="Path_7107" data-name="Path 7107" d="M575.2,437.7a7.279,7.279,0,0,1-.6-.7,2.5,2.5,0,0,1-.4-.8,7.279,7.279,0,0,1,.6.7A2.5,2.5,0,0,1,575.2,437.7Z" fill="#263238"/>
            </g>
          </g>
          <g id="Group_1606" data-name="Group 1606">
            <g id="Group_1605" data-name="Group 1605">
              <path id="Path_7108" data-name="Path 7108" d="M576.6,437a1.716,1.716,0,0,1-.6-.4c-.3-.3-.5-.5-.5-.6a1.716,1.716,0,0,1,.6.4C576.4,436.7,576.6,436.9,576.6,437Z" fill="#263238"/>
            </g>
          </g>
          <g id="Group_1608" data-name="Group 1608">
            <g id="Group_1607" data-name="Group 1607">
              <path id="Path_7109" data-name="Path 7109" d="M577.5,435.3c0,.1-.4.1-.9.1s-.9,0-.9-.1.4-.1.9-.1S577.5,435.2,577.5,435.3Z" fill="#263238"/>
            </g>
          </g>
          <g id="Group_1610" data-name="Group 1610">
            <g id="Group_1609" data-name="Group 1609">
              <path id="Path_7110" data-name="Path 7110" d="M577.8,434.1c0,.1-.4.3-1,.3a6.268,6.268,0,0,1-1.1-.1c0-.1.5,0,1-.1A6.266,6.266,0,0,0,577.8,434.1Z" fill="#263238"/>
            </g>
          </g>
          <g id="Group_1612" data-name="Group 1612">
            <g id="Group_1611" data-name="Group 1611">
              <path id="Path_7111" data-name="Path 7111" d="M574.6,436.2a3.144,3.144,0,0,1-1.1,0,3.013,3.013,0,0,1-1.2-.3,3.63,3.63,0,0,1-.7-.3l-.3-.3c0-.2,0-.4.2-.4a1.889,1.889,0,0,1,2.5.6c.2.3.3.6.4.7v.3a3.611,3.611,0,0,0-.5-1,1.44,1.44,0,0,0-1-.6,1.9,1.9,0,0,0-1.3.1c-.2.1-.1.3.1.5l.6.3,1.2.3C574.2,436.2,574.6,436.1,574.6,436.2Z" fill="#263238"/>
            </g>
          </g>
          <g id="Group_1614" data-name="Group 1614">
            <g id="Group_1613" data-name="Group 1613">
              <path id="Path_7112" data-name="Path 7112" d="M574.3,436.2a1.116,1.116,0,0,1-.1-.8,1.6,1.6,0,0,1,.3-.8c.2-.2.5-.6.9-.6a.338.338,0,0,1,.3.5.764.764,0,0,1-.2.5c-.2.3-.4.5-.5.7a1.088,1.088,0,0,1-.7.5q.15,0,.6-.6a4.233,4.233,0,0,0,.5-.7c.2-.2.3-.7,0-.7a.935.935,0,0,0-.7.5,1.08,1.08,0,0,0-.3.7A1.256,1.256,0,0,0,574.3,436.2Z" fill="#263238"/>
            </g>
          </g>
          <g id="Group_1616" data-name="Group 1616">
            <g id="Group_1615" data-name="Group 1615">
              <path id="Path_7113" data-name="Path 7113" d="M593.2,435a11.616,11.616,0,0,0-1.3.1,5.194,5.194,0,0,0-2.8,1.2,7.382,7.382,0,0,0-1.8,2.5,4.73,4.73,0,0,0-.3,1.2v-.4a3.709,3.709,0,0,1,.2-.9,5.135,5.135,0,0,1,1.8-2.6,5.8,5.8,0,0,1,2.9-1.2h1A.438.438,0,0,1,593.2,435Z" fill="#263238"/>
            </g>
          </g>
          <g id="Group_1618" data-name="Group 1618">
            <g id="Group_1617" data-name="Group 1617">
              <path id="Path_7114" data-name="Path 7114" d="M584.8,438.4a8.679,8.679,0,0,1-2.6.2,17.733,17.733,0,0,1-2.6-.2,18.34,18.34,0,0,1,2.6,0A18.883,18.883,0,0,1,584.8,438.4Z" fill="#263238"/>
            </g>
          </g>
          <g id="Group_1620" data-name="Group 1620">
            <g id="Group_1619" data-name="Group 1619">
              <path id="Path_7115" data-name="Path 7115" d="M588.2,438.3a4.212,4.212,0,0,0-.2.5,4.2,4.2,0,0,1-.2.5c-.1,0-.1-.3,0-.6Z" fill="#263238"/>
            </g>
          </g>
          <g id="Group_1622" data-name="Group 1622">
            <g id="Group_1621" data-name="Group 1621">
              <path id="Path_7116" data-name="Path 7116" d="M589.5,436.7a1.767,1.767,0,1,1-.4.3A1.725,1.725,0,0,1,589.5,436.7Z" fill="#263238"/>
            </g>
          </g>
          <g id="Group_1624" data-name="Group 1624">
            <g id="Group_1623" data-name="Group 1623">
              <path id="Path_7117" data-name="Path 7117" d="M591.4,436c0,.1-.2.1-.5.1-.3.1-.4.2-.5.2a.683.683,0,0,1,.4-.4C591.1,435.8,591.4,435.9,591.4,436Z" fill="#263238"/>
            </g>
          </g>
          <g id="Group_1626" data-name="Group 1626">
            <g id="Group_1625" data-name="Group 1625">
              <path id="Path_7118" data-name="Path 7118" d="M592.7,435.6c0,.1-.1.1-.2.2s-.3.1-.3,0,.1-.1.2-.2Z" fill="#263238"/>
            </g>
          </g>
        </g>
      </g>
      <g id="Group_1660" data-name="Group 1660">
        <g id="Group_1659" data-name="Group 1659">
          <g id="Group_1630" data-name="Group 1630">
            <g id="Group_1629" data-name="Group 1629">
              <path id="Path_7119" data-name="Path 7119" d="M616.9,434.4l-.7-1.5,15.7-7.9,2.8,6-1,.5c-4.3,2.2-21.9,11.1-25.3,11.5C604.7,443.5,616.9,434.4,616.9,434.4Z" fill="#455a64"/>
            </g>
          </g>
          <g id="Group_1632" data-name="Group 1632">
            <g id="Group_1631" data-name="Group 1631">
              <path id="Path_7120" data-name="Path 7120" d="M634.8,430.6a1.237,1.237,0,0,1-.3.2,5.939,5.939,0,0,1-.8.4c-.8.4-1.7.9-2.8,1.4-2.4,1.2-5.7,2.8-9.5,4.5-3.7,1.7-7.1,3.2-9.6,4.2-1.2.5-2.1.9-2.9,1.2a6.9,6.9,0,0,0-.8.3.774.774,0,0,1-.3.1.438.438,0,0,1,.3-.1,6.886,6.886,0,0,1,.8-.3c.8-.3,1.8-.8,2.9-1.3,2.5-1.1,5.9-2.5,9.6-4.2s7.1-3.3,9.5-4.4c1.1-.5,2.1-1,2.9-1.4.3-.1.5-.3.8-.4C634.7,430.6,634.8,430.6,634.8,430.6Z" fill="#263238"/>
            </g>
          </g>
          <g id="Group_1634" data-name="Group 1634">
            <g id="Group_1633" data-name="Group 1633">
              <path id="Path_7121" data-name="Path 7121" d="M613.5,440.7a7.176,7.176,0,0,0-1.2-1.1,11.942,11.942,0,0,0-1.5-.7c0-.1.8-.1,1.6.5C613.3,440,613.6,440.7,613.5,440.7Z" fill="#263238"/>
            </g>
          </g>
          <g id="Group_1636" data-name="Group 1636">
            <g id="Group_1635" data-name="Group 1635">
              <path id="Path_7122" data-name="Path 7122" d="M617.1,436.2a2.5,2.5,0,0,1-.8-.4c-.4-.3-.7-.5-.7-.6a2.5,2.5,0,0,1,.8.4C616.9,435.9,617.2,436.2,617.1,436.2Z" fill="#263238"/>
            </g>
          </g>
          <g id="Group_1638" data-name="Group 1638">
            <g id="Group_1637" data-name="Group 1637">
              <path id="Path_7123" data-name="Path 7123" d="M618.1,435c0,.1-.3,0-.7-.1a2.489,2.489,0,0,1-.7-.3c0-.1.3,0,.7.1S618.1,434.9,618.1,435Z" fill="#263238"/>
            </g>
          </g>
          <g id="Group_1640" data-name="Group 1640">
            <g id="Group_1639" data-name="Group 1639">
              <path id="Path_7124" data-name="Path 7124" d="M618.2,433.1c0,.1-.3.3-.8.5a4.176,4.176,0,0,1-.9.3c0-.1.3-.3.8-.5S618.2,433,618.2,433.1Z" fill="#263238"/>
            </g>
          </g>
          <g id="Group_1642" data-name="Group 1642">
            <g id="Group_1641" data-name="Group 1641">
              <path id="Path_7125" data-name="Path 7125" d="M618,431.9a3.07,3.07,0,0,1-.8.7c-.5.3-1,.4-1,.3s.4-.2.9-.5S618,431.9,618,431.9Z" fill="#263238"/>
            </g>
          </g>
          <g id="Group_1644" data-name="Group 1644">
            <g id="Group_1643" data-name="Group 1643">
              <path id="Path_7126" data-name="Path 7126" d="M616,435.1l-1,.5a10.371,10.371,0,0,1-1.2.3c-.2,0-.5.1-.7,0a.758.758,0,0,1-.4-.2.446.446,0,0,1,0-.5,2.08,2.08,0,0,1,2.6-.5,3.806,3.806,0,0,1,.6.5,1.236,1.236,0,0,0,.2.3,2.713,2.713,0,0,0-.9-.7,3.6,3.6,0,0,0-1.1-.2,2.725,2.725,0,0,0-1.2.6c-.1.2,0,.4.3.4h.7a5.019,5.019,0,0,0,1.2-.2C615.6,435.2,615.9,435,616,435.1Z" fill="#263238"/>
            </g>
          </g>
          <g id="Group_1646" data-name="Group 1646">
            <g id="Group_1645" data-name="Group 1645">
              <path id="Path_7127" data-name="Path 7127" d="M615.7,435.2a1.117,1.117,0,0,1-.4-.7,2.22,2.22,0,0,1-.1-.9,1.332,1.332,0,0,1,.6-.9c.3-.1.8.4.9.6s-.3.1-.3.2a1.883,1.883,0,0,1-.2.8c-.2.7-.4.9-.5.9a4.535,4.535,0,0,0,.3-.8c.1-.2.1-.5.2-.8,0-.3,0-.7-.3-.6s-.4.5-.5.7a2.134,2.134,0,0,0,0,.8C615.5,435,615.8,435.2,615.7,435.2Z" fill="#263238"/>
            </g>
          </g>
          <g id="Group_1648" data-name="Group 1648">
            <g id="Group_1647" data-name="Group 1647">
              <path id="Path_7128" data-name="Path 7128" d="M632.5,426.4a10.715,10.715,0,0,0-1.2.6,5.591,5.591,0,0,0-2.1,2.2,7.247,7.247,0,0,0-.6,3c.1.8.3,1.3.2,1.3a.438.438,0,0,1-.1-.3,2,2,0,0,1-.2-.9,5.321,5.321,0,0,1,2.7-5.4c.4-.2.7-.3.9-.4A1,1,0,0,1,632.5,426.4Z" fill="#263238"/>
            </g>
          </g>
          <g id="Group_1650" data-name="Group 1650">
            <g id="Group_1649" data-name="Group 1649">
              <path id="Path_7129" data-name="Path 7129" d="M626.2,432.9a12.444,12.444,0,0,1-2.2,1.3,17.187,17.187,0,0,1-2.4.9,16.14,16.14,0,0,1,2.3-1A9.549,9.549,0,0,1,626.2,432.9Z" fill="#263238"/>
            </g>
          </g>
          <g id="Group_1652" data-name="Group 1652">
            <g id="Group_1651" data-name="Group 1651">
              <path id="Path_7130" data-name="Path 7130" d="M629.3,431.5c.1,0,0,.3,0,.5v.5c-.1,0-.2-.2-.2-.5S629.2,431.4,629.3,431.5Z" fill="#263238"/>
            </g>
          </g>
          <g id="Group_1654" data-name="Group 1654">
            <g id="Group_1653" data-name="Group 1653">
              <path id="Path_7131" data-name="Path 7131" d="M629.8,429.5c.1,0,0,.2-.1.5-.1.2-.2.4-.3.4s0-.2.1-.5S629.7,429.4,629.8,429.5Z" fill="#263238"/>
            </g>
          </g>
          <g id="Group_1656" data-name="Group 1656">
            <g id="Group_1655" data-name="Group 1655">
              <path id="Path_7132" data-name="Path 7132" d="M631.2,428c0,.1-.2.2-.4.3-.2.2-.3.4-.4.4s0-.3.2-.5A1.192,1.192,0,0,1,631.2,428Z" fill="#263238"/>
            </g>
          </g>
          <g id="Group_1658" data-name="Group 1658">
            <g id="Group_1657" data-name="Group 1657">
              <path id="Path_7133" data-name="Path 7133" d="M632.2,427.2a.494.494,0,0,1-.1.3c-.1.1-.2.2-.3.1a.494.494,0,0,1,.1-.3C632.1,427.2,632.2,427.1,632.2,427.2Z" fill="#263238"/>
            </g>
          </g>
        </g>
      </g>
      <g id="Group_1683" data-name="Group 1683">
        <g id="Group_1673" data-name="Group 1673">
          <g id="Group_1672" data-name="Group 1672">
            <g id="Group_1665" data-name="Group 1665">
              <g id="Group_1664" data-name="Group 1664">
                <g id="Group_1663" data-name="Group 1663">
                  <g id="Group_1662" data-name="Group 1662">
                    <g id="Group_1661" data-name="Group 1661">
                      <path id="Path_7134" data-name="Path 7134" d="M612.6,223.6l-2.9-35.7,15,.3s.7-5.3-1.5-16.8c-1.4-7.1-6.1-11.4-11.4-14v-.1l-.5-.1a44.583,44.583,0,0,0-13.8-3.6l-18.4.2s-14.1-1.8-21.9,8.3c-3,3.9-12.3,30.4-12.3,30.4L567,203.2l-2.1-14.7s.4,10.6,1.8,14c.8,1.9,2.9,7.7,2.9,7.7l-.3,17.6Z" fill="#1953e7"/>
                    </g>
                  </g>
                </g>
              </g>
            </g>
            <g id="Group_1666" data-name="Group 1666">
              <path id="Path_7135" data-name="Path 7135" d="M602.4,182.8l-2.8,11.6h25.9l-1.7-19.5Z" fill="#1953e7"/>
            </g>
            <g id="Group_1668" data-name="Group 1668">
              <g id="Group_1667" data-name="Group 1667">
                <path id="Path_7136" data-name="Path 7136" d="M625.5,194.4a16.647,16.647,0,0,0-3.4-.3c-2.1-.1-5-.2-8.3-.2-3.2,0-6.2.2-8.3.3a21.146,21.146,0,0,0-3.4.4,30.292,30.292,0,0,0,3.4,0c2.1-.1,5-.1,8.3-.2h8.3A15.189,15.189,0,0,0,625.5,194.4Z" fill="#263238"/>
              </g>
            </g>
            <g id="Group_1670" data-name="Group 1670">
              <g id="Group_1669" data-name="Group 1669">
                <path id="Path_7137" data-name="Path 7137" d="M601.3,174.8a14.322,14.322,0,0,0-.1,3c0,1.8.1,4.4.2,7.1.1,2.8.2,5.3.4,7.1a13.61,13.61,0,0,0,.3,3,14.322,14.322,0,0,0,.1-3c0-1.8-.1-4.4-.2-7.1-.1-2.8-.2-5.3-.4-7.1A12.534,12.534,0,0,0,601.3,174.8Z" fill="#263238"/>
              </g>
            </g>
            <g id="Group_1671" data-name="Group 1671" opacity="0.3">
              <path id="Path_7138" data-name="Path 7138" d="M577.8,184.9s5.7,42.6,21.9,41.4c0,0,7.3-.1,9.6-4.9v-1.9Z"/>
            </g>
          </g>
        </g>
        <g id="Group_1674" data-name="Group 1674" opacity="0.3">
          <path id="Path_7139" data-name="Path 7139" d="M601.3,177.3l-3.1,20.8,2,3.7,3.3-7.2h-1.4Z"/>
        </g>
        <g id="Group_1676" data-name="Group 1676">
          <g id="Group_1675" data-name="Group 1675">
            <path id="Path_7140" data-name="Path 7140" d="M569.7,210.2a3.905,3.905,0,0,1-.4-1c-.3-.7-.6-1.6-1-2.8a93.562,93.562,0,0,1-2.5-9.4,70.479,70.479,0,0,1-1.2-9.7c-.1-1.2-.1-2.3-.1-3s0-1.1.1-1.1.1,1.5.4,4a73.952,73.952,0,0,0,1.4,9.6c.7,3.7,1.6,7,2.3,9.4.3,1.1.6,2.1.8,2.8C569.6,209.8,569.7,210.1,569.7,210.2Z" fill="#263238"/>
          </g>
        </g>
        <g id="Group_1678" data-name="Group 1678">
          <g id="Group_1677" data-name="Group 1677">
            <path id="Path_7141" data-name="Path 7141" d="M576.2,222.4a7.467,7.467,0,0,1-.9-2.1,5,5,0,0,1-.4-2.2,7.467,7.467,0,0,1,.9,2.1A5,5,0,0,1,576.2,222.4Z" fill="#263238"/>
          </g>
        </g>
        <g id="Group_1680" data-name="Group 1680">
          <g id="Group_1679" data-name="Group 1679">
            <path id="Path_7142" data-name="Path 7142" d="M578.4,222.2a6.364,6.364,0,0,1-.6-3.1,6.687,6.687,0,0,1,.5-3.1,26.648,26.648,0,0,1,0,3.1C578.4,220.8,578.6,222.2,578.4,222.2Z" fill="#263238"/>
          </g>
        </g>
        <g id="Group_1682" data-name="Group 1682">
          <g id="Group_1681" data-name="Group 1681">
            <path id="Path_7143" data-name="Path 7143" d="M567.5,203.6c-.1.1-5.2-2.3-11.5-5.5-6.3-3.1-11.3-5.8-11.3-5.9.1-.1,5.2,2.3,11.5,5.5C562.5,200.8,567.6,203.5,567.5,203.6Z" fill="#263238"/>
          </g>
        </g>
      </g>
      <g id="Group_1732" data-name="Group 1732">
        <g id="Group_1714" data-name="Group 1714">
          <g id="Group_1713" data-name="Group 1713">
            <g id="Group_1712" data-name="Group 1712">
              <g id="Group_1711" data-name="Group 1711">
                <g id="Group_1710" data-name="Group 1710">
                  <g id="Group_1686" data-name="Group 1686">
                    <g id="Group_1685" data-name="Group 1685">
                      <g id="Group_1684" data-name="Group 1684">
                        <path id="Path_7144" data-name="Path 7144" d="M576.6,157.3c.1-5.1.1-10.4.1-10.4s-6.5-1.3-7.6-9.8c-1.1-8.1,1.9-27.2,1.9-27.2h0c9.5-3.6,19.3-.3,25.8,7.3h0l-1.6,41.1c-.2,4.8-4.4,8.4-9.5,8.2h0C580.6,166.2,576.5,162.1,576.6,157.3Z" fill="#b78876"/>
                      </g>
                    </g>
                  </g>
                  <g id="Group_1694" data-name="Group 1694">
                    <g id="Group_1689" data-name="Group 1689">
                      <g id="Group_1688" data-name="Group 1688">
                        <g id="Group_1687" data-name="Group 1687">
                          <path id="Path_7145" data-name="Path 7145" d="M570.6,125.1a1.051,1.051,0,1,0,1.1-1A1.028,1.028,0,0,0,570.6,125.1Z" fill="#263238"/>
                        </g>
                      </g>
                    </g>
                    <g id="Group_1693" data-name="Group 1693">
                      <g id="Group_1692" data-name="Group 1692">
                        <g id="Group_1691" data-name="Group 1691">
                          <g id="Group_1690" data-name="Group 1690">
                            <path id="Path_7146" data-name="Path 7146" d="M570.2,123.7a15.046,15.046,0,0,1,2.1-.4,8.478,8.478,0,0,1,2.1.5c.1-.1-.1-.3-.4-.6a2.887,2.887,0,0,0-1.7-.6,2.648,2.648,0,0,0-1.7.5C570.2,123.3,570.1,123.6,570.2,123.7Z" fill="#263238"/>
                          </g>
                        </g>
                      </g>
                    </g>
                  </g>
                  <g id="Group_1702" data-name="Group 1702">
                    <g id="Group_1697" data-name="Group 1697">
                      <g id="Group_1696" data-name="Group 1696">
                        <g id="Group_1695" data-name="Group 1695">
                          <path id="Path_7147" data-name="Path 7147" d="M582.5,125.8a1.051,1.051,0,1,0,1.1-1A1.1,1.1,0,0,0,582.5,125.8Z" fill="#263238"/>
                        </g>
                      </g>
                    </g>
                    <g id="Group_1701" data-name="Group 1701">
                      <g id="Group_1700" data-name="Group 1700">
                        <g id="Group_1699" data-name="Group 1699">
                          <g id="Group_1698" data-name="Group 1698">
                            <path id="Path_7148" data-name="Path 7148" d="M582.4,124.4a15.046,15.046,0,0,1,2.1-.4,8.478,8.478,0,0,1,2.1.5c.1-.1-.1-.3-.4-.6a2.887,2.887,0,0,0-1.7-.6,2.648,2.648,0,0,0-1.7.5C582.5,124.1,582.3,124.3,582.4,124.4Z" fill="#263238"/>
                          </g>
                        </g>
                      </g>
                    </g>
                  </g>
                  <g id="Group_1706" data-name="Group 1706">
                    <g id="Group_1705" data-name="Group 1705">
                      <g id="Group_1704" data-name="Group 1704">
                        <g id="Group_1703" data-name="Group 1703">
                          <path id="Path_7149" data-name="Path 7149" d="M577.9,133a6.665,6.665,0,0,0-1.9-.4c-.3,0-.6-.1-.6-.3-.1-.2.1-.5.2-.9.3-.7.6-1.5.9-2.3,1.3-3.2,2.3-5.9,2.1-5.9a38.913,38.913,0,0,0-2.6,5.7c-.3.8-.6,1.5-.9,2.3a2.166,2.166,0,0,0-.2,1.2,1.2,1.2,0,0,0,.5.5,1.087,1.087,0,0,0,.5.1A10.2,10.2,0,0,0,577.9,133Z" fill="#263238"/>
                        </g>
                      </g>
                    </g>
                  </g>
                  <g id="Group_1709" data-name="Group 1709">
                    <g id="Group_1708" data-name="Group 1708">
                      <g id="Group_1707" data-name="Group 1707">
                        <path id="Path_7150" data-name="Path 7150" d="M576.7,146.9a22.194,22.194,0,0,0,11.5-2.7s-2.9,5.8-11.4,4.8Z" fill="#a36957"/>
                      </g>
                    </g>
                  </g>
                </g>
              </g>
            </g>
          </g>
        </g>
        <g id="Group_1716" data-name="Group 1716">
          <g id="Group_1715" data-name="Group 1715">
            <path id="Path_7151" data-name="Path 7151" d="M586.1,121c-.2.4-1.1.2-2.1,0s-1.9-.4-2-.8.9-1,2.3-.7C585.6,119.8,586.4,120.7,586.1,121Z" fill="#263238"/>
          </g>
        </g>
        <g id="Group_1718" data-name="Group 1718">
          <g id="Group_1717" data-name="Group 1717">
            <path id="Path_7152" data-name="Path 7152" d="M574.5,119.3c-.1.4-1,.6-2.1.6s-2.1,0-2.2-.4.8-1.1,2.1-1.1C573.6,118.3,574.6,118.9,574.5,119.3Z" fill="#263238"/>
          </g>
        </g>
        <g id="Group_1719" data-name="Group 1719">
          <path id="Path_7153" data-name="Path 7153" d="M577.9,135.8c-.2-.1-.5.1-.6.3a.627.627,0,0,0,.2.8.608.608,0,0,0,.8,0,.83.83,0,0,0,.2-.8.63.63,0,0,0-.8-.3" fill="#a36957"/>
        </g>
        <g id="Group_1721" data-name="Group 1721">
          <g id="Group_1720" data-name="Group 1720">
            <path id="Path_7154" data-name="Path 7154" d="M578.2,135.9c.1,0-.2-.3-.7-.2a1.167,1.167,0,0,0-.6.6,1.05,1.05,0,0,0,.4,1.1.9.9,0,0,0,1.1,0,1.033,1.033,0,0,0,.4-.8c-.1-.5-.5-.6-.5-.5a2.18,2.18,0,0,1,.1.6.519.519,0,0,1-.2.4.454.454,0,0,1-.5,0,.764.764,0,0,1-.2-.5c0-.2.1-.3.3-.4C577.9,135.9,578.2,136,578.2,135.9Z" fill="#263238"/>
          </g>
        </g>
        <g id="Group_1731" data-name="Group 1731">
          <g id="Group_1722" data-name="Group 1722">
            <path id="Path_7155" data-name="Path 7155" d="M592.9,127.2c-1,2.3-3.5,4.2-3.1,6.7.2,1.6,1.3,3.2,1.1,4.8-.3,2.1-2.4,3.5-2.7,5.5-.4,2.5,2.1,4.5,3,6.8,1.4,3.4-.4,7.3-.4,10.9a11.658,11.658,0,0,0,10.4,11.4c2.3.2,4.9-.5,6-2.5,1-1.6.8-3.7,1.4-5.5.9-2.7,3.4-4.6,4-7.4,1-5-5.1-9.2-4.7-14.3.2-2.2,1.5-4.1,2.1-6.2a8.816,8.816,0,0,0-1.8-8.1c-1.5-1.8-3.7-3-5-4.9-1.5-2.2-1.5-5-2-7.6a19.13,19.13,0,0,0-30.4-11.2s-1.5,6.6,5.3,7.7,9.9-.2,10.7,2.5a7.094,7.094,0,0,0,2,6.2C591.5,125.1,594.1,124.5,592.9,127.2Z" fill="#263238"/>
          </g>
          <g id="Group_1724" data-name="Group 1724">
            <g id="Group_1723" data-name="Group 1723">
              <path id="Path_7156" data-name="Path 7156" d="M603.7,172.9a2.8,2.8,0,0,1-.6-.1,9.575,9.575,0,0,1-1.7-.5,13.142,13.142,0,0,1-7.4-7.9,14.014,14.014,0,0,1-.9-5.1,22.79,22.79,0,0,1,.7-5.7c.3-1,.6-1.9,1-2.9s.8-1.9,1.1-2.9a5.7,5.7,0,0,0,0-2.9,16.868,16.868,0,0,0-1.1-2.7c-.4-.9-.9-1.8-1.2-2.7a5.663,5.663,0,0,1-.2-2.9c.4-1.9,1.5-3.3,2.2-4.7a9.512,9.512,0,0,0,.9-4.3,10.437,10.437,0,0,0-2.2-5.9,21.419,21.419,0,0,0-1.7-1.7,8.339,8.339,0,0,1,1.9,1.5,9.578,9.578,0,0,1,2.4,6,9.306,9.306,0,0,1-.9,4.5c-.7,1.5-1.8,2.9-2.1,4.6-.4,1.7.5,3.5,1.4,5.3a23.572,23.572,0,0,1,1.2,2.8,5.8,5.8,0,0,1,0,3.2c-.3,1-.8,2-1.1,2.9a15.174,15.174,0,0,0-.9,2.8,18.312,18.312,0,0,0-.7,5.6,14.356,14.356,0,0,0,2.9,8.9,12.4,12.4,0,0,0,5,3.9A6.049,6.049,0,0,0,603.7,172.9Z" fill="#455a64"/>
            </g>
          </g>
          <g id="Group_1726" data-name="Group 1726">
            <g id="Group_1725" data-name="Group 1725">
              <path id="Path_7157" data-name="Path 7157" d="M602.7,122.5s-.5.1-1.5.2a14.474,14.474,0,0,1-4.1-.1,7.621,7.621,0,0,1-5.2-3.2,17.3,17.3,0,0,1-1.4-3.4,5.652,5.652,0,0,0-2.3-2.8c-2.2-1.4-4.8-1.6-7-1.8-2.3-.3-4.4-.7-5.8-1.8a5.652,5.652,0,0,1-2.4-3.3,5.386,5.386,0,0,1-.1-1.1.585.585,0,0,1,.1-.4,8.633,8.633,0,0,0,.2,1.5,5.806,5.806,0,0,0,2.4,3.1,11.643,11.643,0,0,0,5.7,1.6c2.2.3,4.9.4,7.2,1.9A5.818,5.818,0,0,1,591,116a14.2,14.2,0,0,0,1.3,3.3,7.573,7.573,0,0,0,4.9,3.1,21.93,21.93,0,0,0,4,.3C602.2,122.4,602.7,122.4,602.7,122.5Z" fill="#455a64"/>
            </g>
          </g>
          <g id="Group_1728" data-name="Group 1728">
            <g id="Group_1727" data-name="Group 1727">
              <path id="Path_7158" data-name="Path 7158" d="M600.3,114.3a2.9,2.9,0,0,1-1.2.2,7.407,7.407,0,0,1-3.2-.7,7.161,7.161,0,0,1-1.9-1.3,11.6,11.6,0,0,1-1.6-2.1c-.9-1.5-1.8-3.4-3.6-4.2s-3.9-.6-5.6-.5a19.2,19.2,0,0,1-4.8,0,6,6,0,0,1-3-1.3,3.19,3.19,0,0,1-.6-.7c-.1-.2-.2-.3-.1-.3,0,0,.3.3.9.8a6.06,6.06,0,0,0,2.9,1.1,18.874,18.874,0,0,0,4.7-.1c1.8-.1,3.8-.4,5.9.5a5.88,5.88,0,0,1,2.4,2c.6.8,1,1.7,1.5,2.4a7.845,7.845,0,0,0,1.4,2,6.733,6.733,0,0,0,4.7,2.1A9.4,9.4,0,0,0,600.3,114.3Z" fill="#455a64"/>
            </g>
          </g>
          <g id="Group_1730" data-name="Group 1730">
            <g id="Group_1729" data-name="Group 1729">
              <path id="Path_7159" data-name="Path 7159" d="M606.7,170.8c-.1,0,.3-.7.6-1.9a18.1,18.1,0,0,0,.7-5.4,16.5,16.5,0,0,0-2.1-7.6c-.7-1.3-1.8-2.5-2.7-3.9a8.656,8.656,0,0,1-1-2.4,4.993,4.993,0,0,1,.2-2.7c.6-1.7,1.6-3.2,1.8-4.8.3-1.6-.5-3-1.3-4.3a19.824,19.824,0,0,1-1.1-2,8.3,8.3,0,0,1-.6-2.1,15.656,15.656,0,0,1,.1-3.8,9.335,9.335,0,0,0-.5-5.3,4.2,4.2,0,0,0-1.2-1.6l.1.1c.1,0,.2.1.3.2a3.093,3.093,0,0,1,.9,1.2,10.559,10.559,0,0,1,.7,5.4,22.566,22.566,0,0,0-.1,3.7,9.248,9.248,0,0,0,1.6,3.9,13.9,13.9,0,0,1,1.1,2.1,5.394,5.394,0,0,1,.3,2.5c-.2,1.7-1.3,3.2-1.8,4.9a3.973,3.973,0,0,0-.2,2.4,8.488,8.488,0,0,0,.9,2.2c.9,1.4,2,2.6,2.7,3.9a16.424,16.424,0,0,1,2.1,7.9,17.59,17.59,0,0,1-.8,5.4,6.449,6.449,0,0,1-.6,1.4A1.452,1.452,0,0,1,606.7,170.8Z" fill="#455a64"/>
            </g>
          </g>
        </g>
      </g>
      <g id="Group_1742" data-name="Group 1742">
        <g id="Group_1733" data-name="Group 1733">
          <path id="Path_7160" data-name="Path 7160" d="M566,357.1s-6.7-63.8-7.1-87.4,10.6-46.9,10.6-46.9l43.1-1.8s8.5,23.9,8.7,34c.3,19.5-5.2,38.8-4.6,54.3l1.4,47.8" fill="#263238"/>
        </g>
        <g id="Group_1735" data-name="Group 1735">
          <g id="Group_1734" data-name="Group 1734">
            <path id="Path_7161" data-name="Path 7161" d="M619.6,278.6a3.957,3.957,0,0,1-.7.5c-.1.1-.3.2-.4.3l-.4.4a5.47,5.47,0,0,0-1,1.1c-1.4,1.7-2.4,4.7-3.4,8.5a28.261,28.261,0,0,1-2.2,6.1,13.024,13.024,0,0,1-1,1.5c-.2.2-.4.5-.6.7l-.7.7a9.879,9.879,0,0,1-3.2,2.1c-2.4,1.1-5.1,1.6-7.6,2.8a11.8,11.8,0,0,0-5.5,6.3c-1.2,2.7-1.9,5.6-3,8.2-1,2.6-2.3,5.2-4.5,6.8a11.89,11.89,0,0,1-7.1,2.2,60.961,60.961,0,0,0-6.4.4,10.954,10.954,0,0,0-4.8,1.8,6.015,6.015,0,0,0-2.2,3.2,5.693,5.693,0,0,0-.2,2.5c.1.6.3.8.2.8a2.413,2.413,0,0,1-.3-.8,4.34,4.34,0,0,1,.1-2.5,6.262,6.262,0,0,1,2.3-3.3,10.372,10.372,0,0,1,4.9-2,62.757,62.757,0,0,1,6.4-.4,12.218,12.218,0,0,0,6.8-2.2c2-1.5,3.3-4,4.3-6.6s1.7-5.5,3-8.2a12.38,12.38,0,0,1,5.8-6.5c2.6-1.3,5.3-1.8,7.7-2.8a8.3,8.3,0,0,0,3.1-2l.6-.6a3.038,3.038,0,0,0,.5-.7,7.46,7.46,0,0,0,.9-1.5,25.808,25.808,0,0,0,2.2-6c1-3.8,2.1-6.9,3.6-8.6a5.471,5.471,0,0,1,1-1.1c.2-.1.3-.3.4-.4s.3-.2.4-.3A5.456,5.456,0,0,1,619.6,278.6Z" fill="#fafafa"/>
          </g>
        </g>
        <g id="Group_1737" data-name="Group 1737">
          <g id="Group_1736" data-name="Group 1736">
            <path id="Path_7162" data-name="Path 7162" d="M619.8,249.1a6.174,6.174,0,0,0,.1.9,12.9,12.9,0,0,1-.3,2.4,15.429,15.429,0,0,1-4.9,7.5,28.2,28.2,0,0,1-5,3.7c-1.9,1.1-4.1,2.2-6.2,3.5a29.785,29.785,0,0,0-6.4,4.5,22.533,22.533,0,0,0-4.8,6.8c-1.4,2.5-2.6,5.1-4.2,7.4a19.276,19.276,0,0,1-2.7,3,14.61,14.61,0,0,1-3.3,2.2,43.73,43.73,0,0,1-6.7,2.6c-2.1.7-4.1,1.2-5.9,2A21.079,21.079,0,0,0,565,298a12.863,12.863,0,0,0-4.5,5.4s.1-.3.3-.8a7.473,7.473,0,0,1,1.3-2.1,12.1,12.1,0,0,1,2.8-2.7,21.178,21.178,0,0,1,4.5-2.5,45.3,45.3,0,0,1,5.9-2,39.186,39.186,0,0,0,6.6-2.6,22.031,22.031,0,0,0,3.2-2.1,14.233,14.233,0,0,0,2.6-2.9,57.277,57.277,0,0,0,4.1-7.3,26.847,26.847,0,0,1,4.9-6.9,30.335,30.335,0,0,1,6.5-4.5c2.2-1.2,4.3-2.3,6.3-3.4a27.893,27.893,0,0,0,5-3.6,15.786,15.786,0,0,0,4.9-7.3A24.672,24.672,0,0,0,619.8,249.1Z" fill="#fafafa"/>
          </g>
        </g>
        <g id="Group_1739" data-name="Group 1739">
          <g id="Group_1738" data-name="Group 1738">
            <path id="Path_7163" data-name="Path 7163" d="M559.1,273a.31.31,0,0,0-.1-.2,3.929,3.929,0,0,0-.2-.6,5.02,5.02,0,0,1,.1-2.4,9.886,9.886,0,0,1,6.3-5.8c1.8-.6,3.8-1,5.9-1.5a12.394,12.394,0,0,0,6-3.1,16.1,16.1,0,0,0,2.1-3,29.971,29.971,0,0,0,1.5-3.6c.9-2.5,1.6-5.2,3.2-7.7a12.476,12.476,0,0,1,6.5-5.1,74.967,74.967,0,0,1,7.5-1.9,24.852,24.852,0,0,0,6.5-2.2,13.213,13.213,0,0,0,4.4-4,14.789,14.789,0,0,0,2.8-8.1c0-2.1-.3-3.2-.2-3.2a10.262,10.262,0,0,1,.4,3.2,14.311,14.311,0,0,1-2.7,8.3,14.937,14.937,0,0,1-4.5,4.1,22.39,22.39,0,0,1-6.6,2.3,73.257,73.257,0,0,0-7.4,1.9,12.145,12.145,0,0,0-6.3,4.9c-1.5,2.4-2.2,5.1-3.1,7.6-.5,1.3-.9,2.5-1.5,3.7a14.358,14.358,0,0,1-2.2,3.1,12.579,12.579,0,0,1-6.2,3.1c-2.1.5-4.1.9-5.9,1.5-3.5,1.2-5.7,3.6-6.3,5.5a4.923,4.923,0,0,0-.2,2.3A3.528,3.528,0,0,0,559.1,273Z" fill="#fafafa"/>
          </g>
        </g>
        <g id="Group_1741" data-name="Group 1741">
          <g id="Group_1740" data-name="Group 1740">
            <path id="Path_7164" data-name="Path 7164" d="M616.1,327a2.8,2.8,0,0,0,.1.6,6.889,6.889,0,0,1-.2,1.8,10.55,10.55,0,0,1-3.8,5.4,16.952,16.952,0,0,1-4,2.4,32.536,32.536,0,0,1-5,1.7,29.531,29.531,0,0,0-5.4,2,14.14,14.14,0,0,0-4.9,3.6c-1.5,1.5-2.7,3.2-4.1,4.7a19.189,19.189,0,0,1-4.6,3.6,21.391,21.391,0,0,1-9.5,2.5,19.646,19.646,0,0,1-6.5-1.1c-.7-.3-1.3-.5-1.7-.7l-.6-.3a3.224,3.224,0,0,0,.6.2,7.964,7.964,0,0,0,1.7.6,18.375,18.375,0,0,0,6.5.9,20.309,20.309,0,0,0,9.3-2.5,21.026,21.026,0,0,0,4.5-3.5c1.4-1.5,2.6-3.1,4.1-4.7a15.158,15.158,0,0,1,5.1-3.7,40.541,40.541,0,0,1,5.5-2,36.673,36.673,0,0,0,5-1.7,18.066,18.066,0,0,0,3.9-2.2,10.4,10.4,0,0,0,3.8-5.2A20.134,20.134,0,0,0,616.1,327Z" fill="#fafafa"/>
          </g>
        </g>
      </g>
      <g id="Group_1745" data-name="Group 1745">
        <path id="Path_7165" data-name="Path 7165" d="M611.2,194.5l-8.3.2a12.3,12.3,0,0,1-1.9,4.7c-7-12.1-12.4-28.3-13.7-34.8.2-.7.4-1.4.7-2.2a11.568,11.568,0,0,0-.1-3.7c-.2-1.4-.6-3.4-.8-4.3-.4-2.8-.8-3.2-1.8-2.9-1.3.4.5,7.7-.5,7.9-.6.1-1.3-2.4-1.5-4.5s-1.1-8.4-1.8-8.8c-1-.6-1.9.4-1.6,2.4.3,2.1.6,8.2-.5,8.3s-2-10.4-2-10.4.2-2.3-1.1-2.2c-2.3.1-.5,11.1-.3,12.2a.552.552,0,1,1-1.1.1c-.1-.8-.7-10.5-3-10.4-1.8.1,1.4,9.1.4,11.2s-1.7-7.1-3.4-7c-.6,0-1.1.2.1,5.4a106,106,0,0,0,4,12.2c2.7,14.4,14.4,60.7,32.9,52.2,10.3-4.7,14.5-25.7,14.5-25.7Z" fill="#b78876"/>
        <g id="Group_1744" data-name="Group 1744">
          <g id="Group_1743" data-name="Group 1743">
            <path id="Path_7166" data-name="Path 7166" d="M575.7,157.2h.2a.587.587,0,0,0,.4-.6,18.047,18.047,0,0,0-.3-2.7,39.522,39.522,0,0,1-.5-4.3,26.238,26.238,0,0,1,.1-2.7,6.151,6.151,0,0,1,.1-1.4c.1-.5.4-1,.7-.9h0c.4,0,.6.3.7.7a2.879,2.879,0,0,1,.1,1.3h0a65.44,65.44,0,0,0,1.1,8.3c.1.4.2.7.3,1.1.1.2.1.4.2.6.1.1.1.2.2.3a1.38,1.38,0,0,0,.4.3c.4,0,.5-.3.6-.5s.1-.4.2-.6c.1-.4.1-.8.2-1.2a28.037,28.037,0,0,0-.1-5,10.68,10.68,0,0,1-.1-2.5c.1-.4.2-.8.5-.9a.6.6,0,0,1,.4-.1.349.349,0,0,1,.2.1c.1.1.1,0,.1.1a14.952,14.952,0,0,1,.7,2.5c.2.9.3,1.8.5,2.7.1.9.3,1.8.4,2.8a13.732,13.732,0,0,0,.5,2.8,7.835,7.835,0,0,0,.5,1.4,2.506,2.506,0,0,0,.4.7.565.565,0,0,0,.6.2c.3-.1.4-.3.4-.4a4.454,4.454,0,0,0,.1-1.6c0-.5-.1-1-.1-1.5a21.057,21.057,0,0,1-.2-2.5v-1.2a4.332,4.332,0,0,1,.1-.5.1.1,0,0,1,.1-.1h.1c.7-.3.9.6,1.1,1.4a20.029,20.029,0,0,1,.4,2.4c.3,1.6.6,3.1.8,4.6a5.452,5.452,0,0,1-.1,2.2c-.2.7-.5,1.4-.7,2.1v.2a108.421,108.421,0,0,0,4.5,14.5c1.6,4.3,3.2,8,4.6,11s2.6,5.3,3.5,6.9c.4.8.8,1.3,1,1.8a2.475,2.475,0,0,0,.4.6l-.3-.6a18.023,18.023,0,0,0-1-1.8c-.8-1.6-2-4-3.4-7s-2.9-6.7-4.4-11a130.364,130.364,0,0,1-4.4-14.4v.1c.2-.7.5-1.4.7-2.1a4.887,4.887,0,0,0,.1-2.4c-.2-1.6-.5-3.1-.8-4.7-.2-.8-.2-1.6-.4-2.4a5.636,5.636,0,0,0-.4-1.2,1.7,1.7,0,0,0-.6-.6,1.1,1.1,0,0,0-.8,0h-.2a.349.349,0,0,0-.2.1,1.381,1.381,0,0,0-.3.4c-.1.2-.1.5-.2.7V154a21.045,21.045,0,0,0,.2,2.5c0,.5.1,1,.1,1.5a4.889,4.889,0,0,1-.1,1.3c0,.1-.1.1,0,.1h0l-.1-.1a2.186,2.186,0,0,1-.3-.5,6.47,6.47,0,0,1-.4-1.3,23.247,23.247,0,0,1-.5-2.8,26.946,26.946,0,0,0-.4-2.8,25.569,25.569,0,0,0-.5-2.7,9.239,9.239,0,0,0-.8-2.7c0-.1-.2-.3-.3-.4s-.2-.1-.4-.2a1.062,1.062,0,0,0-.8.1,1.71,1.71,0,0,0-.7,1.3,3.3,3.3,0,0,0,0,1.4,5.284,5.284,0,0,1,.1,1.3,40.479,40.479,0,0,1,.1,4.9c0,.4-.1.8-.1,1.2a.764.764,0,0,1-.2.5c0,.1-.1.1-.1.2s-.1,0-.1.1c.1-.1,0,0,0-.1a.349.349,0,0,1-.1-.2c-.1-.2-.1-.3-.2-.5-.1-.4-.2-.7-.3-1.1a65.429,65.429,0,0,1-1.1-8.3h0a3.887,3.887,0,0,0-.2-1.5,2.506,2.506,0,0,0-.4-.7,1.08,1.08,0,0,0-.7-.3h.1a.975.975,0,0,0-.9.4c-.2.2-.2.5-.3.8a7.57,7.57,0,0,0-.1,1.5v2.7a23.419,23.419,0,0,0,.6,4.3c.2,1.2.3,2.1.4,2.7a.4.4,0,0,1-.3.5Z" fill="#a36957"/>
          </g>
        </g>
      </g>
      <path id="Path_7167" data-name="Path 7167" d="M510.5,208.2a22.2,22.2,0,0,0-5.8.7c-5.2,1.4-14.1,6.8-14.4,13.4h6.5s-3.6,7.7-2.6,7c2.8-1.9,8.3-7.4,8.3-7.4Z" fill="#b78876"/>
      <g id="Group_1752" data-name="Group 1752">
        <g id="Group_1747" data-name="Group 1747">
          <g id="Group_1746" data-name="Group 1746">
            <path id="Path_7168" data-name="Path 7168" d="M598.9,92c-.1,0-.7-5.3-1.3-12-.6-6.6-.9-12-.8-12s.7,5.3,1.3,12C598.6,86.7,599,92,598.9,92Z" fill="#263238"/>
          </g>
        </g>
        <g id="Group_1749" data-name="Group 1749">
          <g id="Group_1748" data-name="Group 1748">
            <path id="Path_7169" data-name="Path 7169" d="M627.3,68.4c.1.1-4.3,6.4-9.8,14.2s-10.1,14-10.2,13.9,4.3-6.4,9.8-14.2S627.1,68.3,627.3,68.4Z" fill="#263238"/>
          </g>
        </g>
        <g id="Group_1751" data-name="Group 1751">
          <g id="Group_1750" data-name="Group 1750">
            <path id="Path_7170" data-name="Path 7170" d="M639.1,97.2c0,.1-5.1,1.3-11.4,2.6s-11.5,2.2-11.5,2.1,5.1-1.3,11.4-2.6S639,97,639.1,97.2Z" fill="#263238"/>
          </g>
        </g>
      </g>
    </g>
  </g>
  <g id="Folder">
    <g id="Group_1758" data-name="Group 1758">
      <g id="Group_1754" data-name="Group 1754">
        <path id="Path_7171" data-name="Path 7171" d="M299,234.5,263.6,416.3,259,440.1,495,439c10.6-.1,20-9.5,23.4-23.4L560.3,244c2.6-10.6-3.1-21.6-11.1-21.6l-238.9.3C305,222.5,300.3,227.4,299,234.5Z" fill="#c5c5e0"/>
      </g>
      <g id="Group_1756" data-name="Group 1756">
        <path id="Path_7173" data-name="Path 7173" d="M472.4,404l-25-201.4c-1-8.3-7.6-14.4-15.4-14.4l-54.8.2a14.644,14.644,0,0,0-10.8,4.8l-26,27.7-152.4.8c-9.3,0-16.5,8.9-15.2,18.8L196,426.7c1,8.2,7.6,14.4,15.3,14.4l265.6-.5c29.6.6,32.4-8.1,32.4-8.1C475.4,439.8,472.4,404,472.4,404Z" fill="#e5e5ff"/>
      </g>
      <g id="Group_1757" data-name="Group 1757" opacity="0.5">
        <path id="Path_7174" data-name="Path 7174" d="M357.8,363.7l-8.9,9.6-69-62,8.9-9.7Z" fill="#fff"/>
        <path id="Path_7175" data-name="Path 7175" d="M345.1,299.5l9.9,8.9-62.4,67.1-9.9-8.9Z" fill="#fff"/>
      </g>
    </g>
  </g>
  <g id="Speech_Bubble">
    <g id="Group_1767" data-name="Group 1767">
      <g id="Group_1763" data-name="Group 1763">
        <g id="Group_1760" data-name="Group 1760">
          <g id="Group_1759" data-name="Group 1759">
            <path id="Path_7176" data-name="Path 7176" d="M510.3,103.8a1.878,1.878,0,0,1-1.1-1.6l-.4-9.3a1.8,1.8,0,0,1,.7-1.5,1.875,1.875,0,0,1,1.6-.4,5.663,5.663,0,0,0,4.5-.9,4.932,4.932,0,0,0,2.3-3.4,5.475,5.475,0,0,0-1.1-4,6.3,6.3,0,0,0-3.9-2.4,7.083,7.083,0,0,0-7.1,5,1.868,1.868,0,1,1-3.6-1,10.853,10.853,0,0,1,11.1-7.8,9.785,9.785,0,0,1,6.5,3.8,8.715,8.715,0,0,1-2.1,12.8,10.332,10.332,0,0,1-5.1,1.7l.3,7.2a1.88,1.88,0,0,1-1.8,1.9A2.2,2.2,0,0,1,510.3,103.8Z" fill="#1953e7"/>
          </g>
        </g>
        <g id="Group_1762" data-name="Group 1762">
          <g id="Group_1761" data-name="Group 1761">
            <path id="Path_7177" data-name="Path 7177" d="M513.1,107.6a1.5,1.5,0,1,1-1.6-1.4A1.537,1.537,0,0,1,513.1,107.6Z" fill="#1953e7"/>
          </g>
        </g>
      </g>
      <g id="Group_1766" data-name="Group 1766">
        <g id="Group_1765" data-name="Group 1765">
          <g id="Group_1764" data-name="Group 1764">
            <path id="Path_7178" data-name="Path 7178" d="M478.2,90.7a2.8,2.8,0,0,1,.1-.6c0-.4.1-1,.2-1.8a12.56,12.56,0,0,1,.5-2.9,11.63,11.63,0,0,1,.4-1.8c.2-.6.4-1.3.6-2a35.084,35.084,0,0,1,5-9.5A33.881,33.881,0,0,1,495.5,63a41.07,41.07,0,0,1,7.4-3.1,34.147,34.147,0,0,1,8.5-1.1,22.706,22.706,0,0,1,4.5.3c.8.1,1.5.3,2.3.4a9.766,9.766,0,0,1,2.3.6,28.666,28.666,0,0,1,8.9,4.1,33.4,33.4,0,0,1,13.2,16.6,33.766,33.766,0,0,1,2,11.4,31.084,31.084,0,0,1-2.1,11.7L542,105l-.1.2.1.1c2.5,5.8,5,11.4,7.4,16.9l.4-.5c-5.2-2-10.2-3.9-15-5.8l-.2-.1-.1.1a35.055,35.055,0,0,1-14.1,8.2,33.526,33.526,0,0,1-14.7.7,32.768,32.768,0,0,1-12.3-4.9A31.959,31.959,0,0,1,485,112a39.189,39.189,0,0,1-4.6-8.4,42.57,42.57,0,0,1-1.8-7c-.1-1-.2-1.8-.3-2.6V90.9a.309.309,0,0,1-.1-.2v3.5c.1.8.2,1.6.3,2.6a33.276,33.276,0,0,0,14.8,23.6,32.7,32.7,0,0,0,12.4,5,33.076,33.076,0,0,0,29.4-8.9l-.3.1c4.8,1.9,9.8,3.8,15,5.8l.8.3-.3-.8c-2.4-5.5-4.8-11.2-7.3-16.9v.3l.5-1.2a33.371,33.371,0,0,0,2.1-12,35.508,35.508,0,0,0-2-11.7,34.248,34.248,0,0,0-13.5-16.9,33.588,33.588,0,0,0-9.1-4.1c-.8-.3-1.6-.4-2.3-.6-.8-.1-1.6-.3-2.3-.4-1.6-.1-3.1-.3-4.6-.3a31.513,31.513,0,0,0-8.7,1.2A34.031,34.031,0,0,0,485,71.7a32.748,32.748,0,0,0-4.9,9.7c-.2.7-.4,1.4-.6,2a14.9,14.9,0,0,0-.4,1.8,18.083,18.083,0,0,0-.4,2.9,13.569,13.569,0,0,0-.1,1.8C478.2,90.5,478.2,90.7,478.2,90.7Z" fill="#263238"/>
          </g>
        </g>
      </g>
    </g>
  </g>
</svg>
