<svg width="33" height="26" viewBox="0 0 33 26" fill="none" xmlns="http://www.w3.org/2000/svg">
<path d="M11.7563 4.36172C11.8926 4.70248 12.2333 4.90693 12.5741 4.90693C12.6763 4.90693 12.8126 4.87286 12.9149 4.83878C13.3579 4.63432 13.5964 4.12318 13.3919 3.6802L12.4719 1.43118C12.2674 0.98819 11.7563 0.749658 11.3133 0.954114C10.8703 1.15857 10.6318 1.66971 10.8362 2.1127L11.7563 4.36172Z" fill="white"/>
<path d="M19.4234 4.83878C19.5256 4.87286 19.6619 4.90693 19.7642 4.90693C20.1049 4.90693 20.4457 4.70248 20.582 4.36172L21.502 2.1127C21.7065 1.66971 21.468 1.12449 21.025 0.954114C20.582 0.749658 20.0368 0.98819 19.8664 1.43118L18.9463 3.6802C18.7419 4.12318 18.9804 4.63432 19.4234 4.83878Z" fill="white"/>
<path d="M16.1861 4.19135C16.6973 4.19135 17.0721 3.78244 17.0721 3.30537V0.885977C17.0721 0.374836 16.6632 0 16.1861 0C15.675 0 15.3002 0.408912 15.3002 0.885977V3.30537C15.3002 3.78244 15.675 4.19135 16.1861 4.19135Z" fill="white"/>
<path d="M12.574 7.56488L7.70117 12.0288H24.671L19.7982 7.56488H12.574Z" fill="white"/>
<path d="M21.1612 18.9122H18.8099V20.8205H21.1612V18.9122Z" fill="white"/>
<path d="M8.07602 4.42988C7.87156 4.2595 7.56488 4.22542 7.32634 4.36172L0.408912 7.8034C0.17038 7.93971 0 8.17824 0 8.45085C0 8.72345 0.136304 8.96199 0.374836 9.09829L5.6907 11.8584L11.2451 6.78112L8.07602 4.42988Z" fill="white"/>
<path d="M6.44043 25.2844C6.44043 25.6933 6.78119 26 7.15603 26H25.1822C25.5912 26 25.8978 25.6592 25.8978 25.2844V13.4941H6.44043V25.2844ZM17.3788 18.1625C17.3788 17.7536 17.7196 17.4469 18.0944 17.4469H21.9109C22.3199 17.4469 22.6265 17.7877 22.6265 18.1625V21.536C22.6265 21.945 22.2858 22.2516 21.9109 22.2516H18.0944C17.6855 22.2516 17.3788 21.9109 17.3788 21.536V18.1625ZM10.4614 17.4469H14.6187C15.0276 17.4469 15.3343 17.7877 15.3343 18.1625C15.3343 18.5714 14.9935 18.8781 14.6187 18.8781H10.4614C10.0525 18.8781 9.7458 18.5374 9.7458 18.1625C9.7458 17.7877 10.0525 17.4469 10.4614 17.4469ZM10.4614 20.8205H14.6187C15.0276 20.8205 15.3343 21.1612 15.3343 21.536C15.3343 21.945 14.9935 22.2516 14.6187 22.2516H10.4614C10.0525 22.2516 9.7458 21.9109 9.7458 21.536C9.7458 21.1271 10.0525 20.8205 10.4614 20.8205Z" fill="white"/>
<path d="M31.9633 7.8034L25.0799 4.36172C24.8414 4.22542 24.5347 4.2595 24.3302 4.42988L21.1271 6.78112L26.6815 11.8584L31.9973 9.09829C32.2359 8.96199 32.4062 8.72345 32.3722 8.45085C32.3722 8.17824 32.2018 7.93971 31.9633 7.8034Z" fill="white"/>
</svg>
