<svg width="33" height="26" viewBox="0 0 33 26" fill="none" xmlns="http://www.w3.org/2000/svg">
<path d="M7.12883 0.416504H0.540063C0.252029 0.416504 0 0.668533 0 0.956567V25.4034C0 25.6914 0.252029 25.9435 0.540063 25.9435H7.16483C7.45287 25.9435 7.70489 25.6914 7.70489 25.4034V0.992571C7.70489 0.668533 7.45287 0.416504 7.12883 0.416504ZM6.26473 22.6311C6.26473 22.7031 6.19272 22.7751 6.12071 22.7751H1.7642C1.6922 22.7751 1.62019 22.7031 1.62019 22.6311V22.235C1.62019 22.163 1.6922 22.091 1.7642 22.091H6.12071C6.19272 22.091 6.26473 22.163 6.26473 22.235V22.6311ZM6.26473 6.21318C6.26473 6.28518 6.19272 6.35719 6.12071 6.35719H1.7642C1.6922 6.35719 1.62019 6.28518 1.62019 6.21318V5.81713C1.62019 5.74512 1.6922 5.67311 1.7642 5.67311H6.12071C6.19272 5.67311 6.26473 5.74512 6.26473 5.81713V6.21318ZM6.26473 4.77301C6.26473 4.84502 6.19272 4.91703 6.12071 4.91703H1.7642C1.6922 4.91703 1.62019 4.84502 1.62019 4.77301V4.37696C1.62019 4.30496 1.6922 4.23295 1.7642 4.23295H6.12071C6.19272 4.23295 6.26473 4.30496 6.26473 4.37696V4.77301Z" fill="white"/>
<path d="M14.3297 0.416504H8.89308C8.56905 0.416504 8.31702 0.668533 8.31702 0.992571V25.4034C8.31702 25.7274 8.56905 25.9795 8.89308 25.9795H14.3297C14.6538 25.9795 14.9058 25.7274 14.9058 25.4034V0.992571C14.9058 0.668533 14.6538 0.416504 14.3297 0.416504ZM13.4656 22.6311C13.4656 22.7031 13.3936 22.7751 13.3216 22.7751H9.72118C9.64917 22.7751 9.57716 22.7031 9.57716 22.6311V22.235C9.57716 22.163 9.64917 22.091 9.72118 22.091H13.3216C13.3936 22.091 13.4656 22.163 13.4656 22.235V22.6311ZM13.4656 6.21318C13.4656 6.28518 13.3936 6.35719 13.3216 6.35719H9.72118C9.64917 6.35719 9.57716 6.28518 9.57716 6.21318V5.81713C9.57716 5.74512 9.64917 5.67311 9.72118 5.67311H13.3216C13.3936 5.67311 13.4656 5.74512 13.4656 5.81713V6.21318ZM13.4656 4.77301C13.4656 4.84502 13.3936 4.91703 13.3216 4.91703H9.72118C9.64917 4.91703 9.57716 4.84502 9.57716 4.77301V4.37696C9.57716 4.30496 9.64917 4.23295 9.72118 4.23295H13.3216C13.3936 4.23295 13.4656 4.30496 13.4656 4.37696V4.77301Z" fill="white"/>
<path d="M32.7278 22.4151L22.4666 0.344532C22.3226 0.0564982 21.9625 -0.0875182 21.6745 0.0564985L15.8418 2.75681C15.5538 2.90083 15.4098 3.26087 15.5538 3.5489L25.815 25.6555C25.959 25.9435 26.319 26.0875 26.6071 25.9435L32.4397 23.2432C32.7278 23.0992 32.8718 22.7391 32.7278 22.4151ZM18.7581 6.21321L18.5781 5.85317C18.5421 5.78116 18.5781 5.67315 18.6501 5.63715L21.9265 4.12497C21.9985 4.08897 22.1065 4.12497 22.1425 4.19698L22.3226 4.55702C22.3586 4.62903 22.3226 4.73704 22.2505 4.77305L18.9742 6.28522C18.8662 6.32122 18.7941 6.28522 18.7581 6.21321ZM22.8266 6.0692L19.5502 7.58137C19.4782 7.61738 19.3702 7.58137 19.3342 7.50936L19.1542 7.14932C19.1182 7.07731 19.1542 6.9693 19.2262 6.9333L22.5026 5.42112C22.5746 5.38512 22.6826 5.42112 22.7186 5.49313L22.8986 5.85317C22.9346 5.92518 22.8986 6.03319 22.8266 6.0692ZM29.7394 20.9749L26.463 22.4871C26.391 22.5231 26.283 22.4871 26.247 22.4151L26.067 22.055C26.031 21.983 26.067 21.875 26.139 21.839L29.4154 20.3269C29.4874 20.2908 29.5954 20.3268 29.6314 20.3989L29.8114 20.7589C29.8474 20.8309 29.8114 20.9389 29.7394 20.9749Z" fill="white"/>
</svg>
