<svg width="30" height="26" viewBox="0 0 30 26" fill="none" xmlns="http://www.w3.org/2000/svg">
<path d="M24.0548 3.59922V1.41847C24.0548 0.634892 23.3343 0 22.4458 0C21.5574 0 20.8369 0.634892 20.8369 1.41847V3.59922C20.8369 4.38284 21.5574 5.01823 22.4458 5.01823C23.3343 5.01823 24.0548 4.38284 24.0548 3.59922Z" fill="white"/>
<path d="M8.69297 3.59922V1.41847C8.69297 0.634892 7.97252 0 7.08401 0C6.19554 0 5.4751 0.634892 5.4751 1.41847V3.59922C5.4751 4.38284 6.19554 5.01823 7.08401 5.01823C7.97252 5.01823 8.69297 4.38284 8.69297 3.59922Z" fill="white"/>
<path d="M29.3943 4.24949C29.3943 3.14715 28.3743 2.24707 27.1244 2.24707H25.2319V3.59952C25.2319 4.95613 23.982 6.05846 22.4432 6.05846C20.9103 6.05846 19.6604 4.95613 19.6604 3.59952V2.24707H9.87354V3.59952C9.87354 4.95613 8.62365 6.05846 7.08484 6.05846C5.54608 6.05846 4.29619 4.95613 4.29619 3.59952V2.24707H2.40364C1.15375 2.24707 0.133789 3.14715 0.133789 4.24949V7.33759H29.3943V4.24949V4.24949Z" fill="white"/>
<path d="M0.133789 23.9976C0.133789 25.0999 1.15375 26 2.40364 26H27.1244C28.3743 26 29.3943 25.0999 29.3943 23.9976V8.37769H0.133789V23.9976ZM21.6827 10.494C21.6827 10.2085 21.948 9.97399 22.2722 9.97399H25.2555C25.5797 9.97399 25.845 10.2085 25.845 10.494V13.125C25.845 13.4167 25.5797 13.645 25.2555 13.645H22.2722C21.948 13.645 21.6827 13.4167 21.6827 13.125V10.494ZM21.6827 15.6157C21.6827 15.3245 21.948 15.0957 22.2722 15.0957H25.2555C25.5797 15.0957 25.845 15.3245 25.845 15.6157V18.2472C25.845 18.5327 25.5797 18.7672 25.2555 18.7672H22.2722C21.948 18.7672 21.6827 18.5327 21.6827 18.2472V15.6157ZM15.6808 10.494C15.6808 10.2085 15.9461 9.97399 16.2704 9.97399H19.2536C19.5838 9.97399 19.8432 10.2085 19.8432 10.494V13.125C19.8432 13.4167 19.5838 13.645 19.2536 13.645H16.2704C15.9461 13.645 15.6808 13.4167 15.6808 13.125V10.494ZM15.6808 15.6157C15.6808 15.3245 15.9461 15.0957 16.2704 15.0957H19.2536C19.5838 15.0957 19.8432 15.3245 19.8432 15.6157V18.2472C19.8432 18.5327 19.5838 18.7672 19.2536 18.7672H16.2704C15.9461 18.7672 15.6808 18.5327 15.6808 18.2472V15.6157ZM9.68485 15.6157C9.68485 15.3245 9.95018 15.0957 10.2745 15.0957H13.2577C13.5819 15.0957 13.8473 15.3245 13.8473 15.6157V18.2472C13.8473 18.5327 13.5819 18.7672 13.2577 18.7672H10.2745C9.95018 18.7672 9.68485 18.5327 9.68485 18.2472V15.6157V15.6157ZM9.68485 20.7322C9.68485 20.441 9.95018 20.2122 10.2745 20.2122H13.2577C13.5819 20.2122 13.8473 20.441 13.8473 20.7322V23.3632C13.8473 23.6492 13.5819 23.8832 13.2577 23.8832H10.2745C9.95018 23.8832 9.68485 23.6492 9.68485 23.3632V20.7322V20.7322ZM3.683 15.6157C3.683 15.3245 3.94833 15.0957 4.27256 15.0957H7.25583C7.58599 15.0957 7.8454 15.3245 7.8454 15.6157V18.2472C7.8454 18.5327 7.58599 18.7672 7.25583 18.7672H4.27256C3.94833 18.7672 3.683 18.5327 3.683 18.2472V15.6157V15.6157ZM3.683 20.7322C3.683 20.441 3.94833 20.2122 4.27256 20.2122H7.25583C7.58599 20.2122 7.8454 20.441 7.8454 20.7322V23.3632C7.8454 23.6492 7.58599 23.8832 7.25583 23.8832H4.27256C3.94833 23.8832 3.683 23.6492 3.683 23.3632V20.7322V20.7322Z" fill="white"/>
</svg>
