<svg xmlns="http://www.w3.org/2000/svg" xmlns:xlink="http://www.w3.org/1999/xlink" width="48" height="48" viewBox="0 0 48 48">
  <defs>
    <filter id="Ellipse_5" x="0" y="0" width="48" height="48" filterUnits="userSpaceOnUse">
      <feOffset dy="2" input="SourceAlpha"/>
      <feGaussianBlur stdDeviation="3" result="blur"/>
      <feFlood flood-opacity="0.161"/>
      <feComposite operator="in" in2="blur"/>
      <feComposite in="SourceGraphic"/>
    </filter>
  </defs>
  <g id="Youtube" transform="translate(-769 -668)">
    <g id="Linkdin" transform="translate(-37 1)">
      <g id="Group_339" data-name="Group 339" transform="translate(-2819 4338)">
        <g transform="matrix(1, 0, 0, 1, 3625, -3671)" filter="url(#Ellipse_5)">
          <circle id="Ellipse_5-2" data-name="Ellipse 5" cx="15" cy="15" r="15" transform="translate(9 7)" fill="red"/>
        </g>
      </g>
    </g>
    <path id="Icon_awesome-youtube" data-name="Icon awesome-youtube" d="M17.2,6.315a2.073,2.073,0,0,0-1.458-1.468A48.978,48.978,0,0,0,9.3,4.5a48.979,48.979,0,0,0-6.444.347A2.073,2.073,0,0,0,1.395,6.315a21.742,21.742,0,0,0-.345,4,21.742,21.742,0,0,0,.345,4,2.042,2.042,0,0,0,1.458,1.444A48.979,48.979,0,0,0,9.3,16.1a48.979,48.979,0,0,0,6.444-.347A2.042,2.042,0,0,0,17.2,14.306a21.742,21.742,0,0,0,.345-4,21.742,21.742,0,0,0-.345-4ZM7.61,12.763v-4.9l4.311,2.453L7.61,12.763Z" transform="translate(783.703 679.701)" fill="#fff"/>
  </g>
</svg>
